<svg width="175" height="275" viewBox="0 0 175 275" fill="none" xmlns="http://www.w3.org/2000/svg">
<path d="M70.3919 23.4796C71.3105 40.8699 39.4289 57.0088 23.9392 1.50876C38.1201 -2.0058 69.4733 6.08924 70.3919 23.4796Z" fill="#0FDA31" stroke="black" stroke-width="1.38164"/>
<path d="M64.7773 32.5839C60.5157 34.5243 32.4597 0.761821 26.7773 3.86641" stroke="#089E21"/>
<path d="M49.7178 145.431C71.257 138.963 75.5426 89.8146 0.777344 93.9061C3.31638 114.149 28.1786 151.9 49.7178 145.431Z" fill="#0FDA31" stroke="black" stroke-width="1.38164"/>
<path d="M85.7626 274.429V215.71M131.343 153.305C97.8016 162.598 85.7626 175.767 85.7626 215.71M85.7626 215.71C85.7626 175.767 93.3652 137.417 52.8193 137.417" stroke="#0ED730" stroke-width="4.60548"/>
<path d="M108.394 145.432C107.106 167.884 151.824 188.721 173.55 117.065C153.66 112.528 109.683 122.979 108.394 145.432Z" fill="#0FDA31" stroke="black" stroke-width="1.38164"/>
<path d="M55.7773 136.556C50.0577 139.166 12.4036 93.7609 4.77734 97.936" stroke="#089E21"/>
<path d="M115.777 156.665C121.777 159.165 161.277 115.665 169.277 119.665" stroke="#089E21"/>
<path d="M88.2713 186.665V120.665M120.777 50.5234C96.8571 60.9676 88.2713 75.7696 88.2713 120.665M88.2713 120.665C88.2713 75.7696 93.6932 32.6646 64.7773 32.6646" stroke="#0FDA31" stroke-width="4.60548"/>
<path d="M113.163 46.7156C112.244 64.106 144.126 80.2448 159.616 24.7448C145.435 21.2303 114.081 29.3253 113.163 46.7156Z" fill="#0FDA31" stroke="black" stroke-width="1.38164"/>
<path d="M118.777 55.5839C123.039 57.5243 151.095 23.7618 156.777 26.8664" stroke="#089E21"/>
</svg>
