<svg width="123" height="98" viewBox="0 0 123 98" fill="none" xmlns="http://www.w3.org/2000/svg">
<rect x="33.751" y="1.5" width="87" height="94.5" rx="13.5" fill="#D9D9D9" stroke="#5D4037" stroke-width="3"/>
<rect x="27.751" y="1.5" width="87" height="94.5" rx="13.5" fill="#D9D9D9" stroke="#5D4037" stroke-width="3"/>
<rect x="20.251" y="1.5" width="87" height="94.5" rx="13.5" fill="#D9D9D9" stroke="#5D4037" stroke-width="3"/>
<rect x="6.75098" y="1.5" width="93" height="94.5" rx="13.5" fill="#7F5B50" stroke="#5D4037" stroke-width="3"/>
<circle cx="18.751" cy="25.5" r="4.5" fill="black"/>
<circle cx="18.751" cy="58.5" r="4.5" fill="black"/>
<circle cx="18.751" cy="75" r="4.5" fill="black"/>
<circle cx="18.751" cy="42" r="4.5" fill="black"/>
<path d="M18.8994 25.8304C18.8994 14.1005 -7.72715 14.8505 3.52318 32.8505" stroke="#6C6C6C" stroke-width="1.5"/>
<path d="M18.8994 42.3304C18.8994 30.6005 -7.72715 31.3505 3.52318 49.3505" stroke="#6C6C6C" stroke-width="1.5"/>
<path d="M18.8994 58.8304C18.8994 47.1005 -7.72715 47.8505 3.52318 65.8505" stroke="#6C6C6C" stroke-width="1.5"/>
<path d="M18.8994 75.3304C18.8994 63.6005 -7.72715 64.3505 3.52318 82.3505" stroke="#6C6C6C" stroke-width="1.5"/>
<path d="M50.9079 36.2291C43.7079 29.029 35.6079 34.879 41.4579 43.8789C48.6579 51.9784 56.7579 44.3291 50.9079 36.2291Z" fill="#FFD966" stroke="black" stroke-width="0.9"/>
<path d="M61.7012 38.8844C61.7013 28.702 51.8371 27.111 49.6098 37.6114C48.9737 48.4298 60.1102 48.7485 61.7012 38.8844Z" fill="#FFD966" stroke="black" stroke-width="0.9"/>
<path d="M66.7516 46.2568C73.9517 39.0568 68.1017 30.9568 59.1018 36.8068C51.0023 44.0067 58.6516 52.1068 66.7516 46.2568Z" fill="#FFD966" stroke="black" stroke-width="0.9"/>
<path d="M64.9188 55.2503C75.1012 55.2503 76.6922 45.3862 66.1918 43.1589C55.3734 42.5228 55.0547 53.6593 64.9188 55.2503Z" fill="#FFD966" stroke="black" stroke-width="0.9"/>
<path d="M56.7581 60.3002C63.9581 67.5003 72.0581 61.6503 66.2081 52.6504C59.0082 44.5509 50.9081 52.2002 56.7581 60.3002Z" fill="#FFD966" stroke="black" stroke-width="0.9"/>
<path d="M45.8535 58.4681C45.8534 68.6506 55.7176 70.2416 57.9449 59.7411C58.581 48.9227 47.4445 48.604 45.8535 58.4681Z" fill="#FFD966" stroke="black" stroke-width="0.9"/>
<path d="M42.6359 42.1023C32.4535 42.1022 30.8625 51.9663 41.3629 54.1937C52.1813 54.8297 52.5 43.6933 42.6359 42.1023Z" fill="#FFD966" stroke="black" stroke-width="0.9"/>
<path d="M41.7796 51.2068C34.5795 58.4068 40.4295 66.5068 49.4294 60.6569C57.5289 53.4569 49.8796 45.3568 41.7796 51.2068Z" fill="#FFD966" stroke="black" stroke-width="0.9"/>
<path d="M53.4004 44.7004C56.1341 44.7004 58.3504 46.916 58.3506 49.6497C58.3506 52.3835 56.1342 54.5999 53.4004 54.5999C50.6668 54.5996 48.4512 52.3833 48.4512 49.6497C48.4514 46.9162 50.6669 44.7007 53.4004 44.7004Z" fill="#651400" stroke="black" stroke-width="1.8"/>
</svg>
