<svg width="173" height="295" viewBox="0 0 173 295" fill="none" xmlns="http://www.w3.org/2000/svg">
<g filter="url(#filter0_d_1_47)">
<path d="M108.841 289H50.0547C44.3699 289 39.4185 285.121 38.0571 279.602L16.1351 190.721C14.2138 182.931 20.1096 175.405 28.1327 175.405H136.974C145.33 175.405 151.276 183.525 148.755 191.491L120.622 280.372C118.996 285.509 114.229 289 108.841 289Z" fill="#A22525"/>
<path d="M108.841 289H50.0547C44.3699 289 39.4185 285.121 38.0571 279.602L16.1351 190.721C14.2138 182.931 20.1096 175.405 28.1327 175.405H136.974C145.33 175.405 151.276 183.525 148.755 191.491L120.622 280.372C118.996 285.509 114.229 289 108.841 289Z" stroke="#1E1E1E" stroke-width="1.85357"/>
</g>
<rect x="0.926786" y="164.081" width="163.732" height="32.6705" rx="11.4304" fill="#671A1A" stroke="black" stroke-width="1.85357"/>
<ellipse cx="97.3744" cy="231.367" rx="4.44857" ry="3.00694" fill="#2F0303"/>
<ellipse cx="63.2689" cy="231.367" rx="4.44857" ry="3.00694" fill="#2F0303"/>
<path d="M94.5318 241.669C94.5318 253.472 66.1104 252.119 66.1104 241.669" stroke="black" stroke-width="6.17857"/>
<defs>
<filter id="filter0_d_1_47" x="12.3713" y="174.478" width="140.368" height="120.392" filterUnits="userSpaceOnUse" color-interpolation-filters="sRGB">
<feFlood flood-opacity="0" result="BackgroundImageFix"/>
<feColorMatrix in="SourceAlpha" type="matrix" values="0 0 0 0 0 0 0 0 0 0 0 0 0 0 0 0 0 0 127 0" result="hardAlpha"/>
<feOffset dy="2.47143"/>
<feGaussianBlur stdDeviation="1.23571"/>
<feComposite in2="hardAlpha" operator="out"/>
<feColorMatrix type="matrix" values="0 0 0 0 0 0 0 0 0 0 0 0 0 0 0 0 0 0 0.25 0"/>
<feBlend mode="normal" in2="BackgroundImageFix" result="effect1_dropShadow_1_47"/>
<feBlend mode="normal" in="SourceGraphic" in2="effect1_dropShadow_1_47" result="shape"/>
</filter>
</defs>
</svg>
