<svg preserveAspectRatio="none" width="100%" height="100%" overflow="visible" style="display: block;" viewBox="0 0 217.994 174" fill="none" xmlns="http://www.w3.org/2000/svg">
<g id="Group 4">
<path id="Vector 8" d="M187.779 75.0779V53.8236C226.74 53.8236 226.74 151.745 187.779 151.745V129.352C215.172 136.753 213.646 65.9689 187.779 75.0779Z" fill="var(--fill-0, #FCBE04)" stroke="var(--stroke-0, black)" stroke-width="1.5466"/>
<rect id="Rectangle 6" x="25.3927" y="27.9706" width="18.442" height="125" rx="9" transform="rotate(-35 25.3927 27.9706)" fill="var(--fill-0, #FCBE04)" stroke="var(--stroke-0, black)" stroke-width="2"/>
<path id="Vector 10" d="M188 73.2543V52C226.961 52 226.961 149.922 188 149.922V127.529C215.393 134.93 213.867 64.1453 188 73.2543Z" fill="var(--fill-0, #FCBE04)" stroke="var(--stroke-0, black)" stroke-width="1.5466"/>
<rect id="Rectangle 5" x="92" y="29" width="95" height="144" rx="9" fill="var(--fill-0, #FCBE04)" stroke="var(--stroke-0, black)" stroke-width="2"/>
<path id="Vector 81" d="M41.5104 6.49586L10.7432 28.0393C5.3363 31.8252 5.40814 39.7472 11.9734 40.4297C29.3549 42.2364 50.9202 27.0603 52.8309 10.9662C53.5399 4.99413 46.4368 3.04634 41.5104 6.49586Z" fill="var(--fill-0, #FCBE04)" stroke="var(--stroke-0, black)" stroke-width="2"/>
<path id="Vector 10_2" d="M121.743 104.836C121.743 115.291 155.769 115.001 155.769 104.836" stroke="var(--stroke-0, black)" stroke-width="5.15534"/>
<ellipse id="Ellipse 5" cx="156.603" cy="92.0932" rx="2.06213" ry="3.0932" fill="var(--fill-0, black)"/>
<ellipse id="Ellipse 6" cx="122.062" cy="92.0932" rx="2.06213" ry="3.0932" fill="var(--fill-0, black)"/>
</g>
</svg>
