<svg preserveAspectRatio="none" width="100%" height="100%" overflow="visible" style="display: block;" viewBox="0 0 106 109.53" fill="none" xmlns="http://www.w3.org/2000/svg">
<g id="Group 1">
<path id="Vector" d="M6.4 79.88C6.39999 32.28 42.3973 32.28 66.6167 32.28H105.6V58.28H66.6167C47.5398 58.28 30.7853 58.28 30.7853 79.88H6.4Z" fill="var(--fill-0, #6D6D6D)" stroke="var(--stroke-0, black)" stroke-width="0.8"/>
<path id="Vector 75" d="M4.99999 75.48H36.6C39.1405 75.48 41.2 77.5395 41.2 80.08C41.2 82.6205 39.1405 84.68 36.6 84.68H5C2.45949 84.68 0.4 82.6205 0.4 80.08C0.4 77.5395 2.45948 75.48 4.99999 75.48Z" fill="var(--fill-0, #6D6D6D)" stroke="var(--stroke-0, black)" stroke-width="0.8"/>
<rect id="Rectangle 4" x="53.76" y="11.2" width="12.04" height="20.72" fill="var(--fill-0, #6D6D6D)" stroke="var(--stroke-0, black)" stroke-width="0.56"/>
<path id="Vector 76" d="M59.78 7.76087C40.4844 -1.22119 25.2 -3.15911 25.2 7.76087C25.2 18.6809 41.02 17.9809 59.78 7.76087Z" fill="var(--fill-0, #6D6D6D)" stroke="var(--stroke-0, black)" stroke-width="0.56"/>
<path id="Vector 77" d="M59.64 7.76087C78.9357 -1.22119 94.22 -3.15911 94.22 7.76087C94.22 18.6809 78.4 17.9809 59.64 7.76087Z" fill="var(--fill-0, #6D6D6D)" stroke="var(--stroke-0, black)" stroke-width="0.56"/>
<path id="Ellipse 19" d="M59.7797 1.40031C62.554 1.40031 65.0537 2.15578 66.851 3.36222C68.6499 4.56984 69.7202 6.20807 69.7202 7.98039C69.72 9.75267 68.6499 11.391 66.851 12.5986C65.0537 13.805 62.554 14.5605 59.7797 14.5605C57.0057 14.5604 54.5067 13.8049 52.7094 12.5986C50.9104 11.391 49.8404 9.75274 49.8403 7.98039C49.8403 6.20797 50.9104 4.56985 52.7094 3.36222C54.5067 2.15582 57.0056 1.40036 59.7797 1.40031Z" fill="var(--fill-0, #6D6D6D)" stroke="var(--stroke-0, black)" stroke-width="0.56"/>
<path id="Vector 79" d="M45.2 46.1415C45.2 39.1015 56.08 38.6215 56.08 46.1415M62.96 46.1415C62.96 39.1015 73.84 38.6215 73.84 46.1415" stroke="var(--stroke-0, black)" stroke-width="0.64"/>
<path id="Vector 80" d="M53.98 49.7952C56.86 53.3152 61.82 52.9952 65.02 49.7952" stroke="var(--stroke-0, black)" stroke-width="0.8"/>
<g id="Vector 82">
<path d="M13.0723 109.03C10.7055 109.03 10.984 100.72 13.0724 100.72C15.1607 100.72 14.8822 93.2198 13.0723 93.2198C11.2624 93.2198 10.5663 84.9698 13.0723 84.9698H20.4001H28.4C25.894 84.9698 26.5901 93.2198 28.4 93.2198C30.4 93.2198 30.9061 100.72 28.4 100.72C25.894 100.72 26.5901 109.03 28.4 109.03H20.4001H13.0723Z" fill="var(--fill-0, #0FBCEB)"/>
<path d="M20.4001 109.03H13.0723C10.7055 109.03 10.984 100.72 13.0724 100.72C15.1607 100.72 14.8822 93.2198 13.0723 93.2198C11.2624 93.2198 10.5663 84.9698 13.0723 84.9698H28.4C25.894 84.9698 26.5901 93.2198 28.4 93.2198C30.4 93.2198 30.9061 100.72 28.4 100.72C25.894 100.72 26.5901 109.03 28.4 109.03H20.4001ZM20.4001 109.03C18.5902 109.03 17.894 100.72 20.4001 100.72C23.1924 100.801 22.4 93.2198 20.4001 93.2198C18.5902 93.2198 17.894 84.9698 20.4001 84.9698" stroke="var(--stroke-0, black)"/>
</g>
</g>
</svg>
