<svg width="230" height="255" viewBox="0 0 230 255" fill="none" xmlns="http://www.w3.org/2000/svg">
<path d="M130 79.88C130 32.28 165.997 32.28 190.217 32.28H229.2V58.28H190.217C171.14 58.28 154.385 58.28 154.385 79.88H130Z" fill="#6D6D6D" stroke="black" stroke-width="0.8"/>
<path d="M128.6 75.48H160.2C162.741 75.48 164.8 77.5395 164.8 80.08C164.8 82.6205 162.741 84.68 160.2 84.68H128.6C126.059 84.68 124 82.6205 124 80.08C124 77.5395 126.059 75.48 128.6 75.48Z" fill="#6D6D6D" stroke="black" stroke-width="0.8"/>
<rect x="177.36" y="11.2" width="12.04" height="20.72" fill="#6D6D6D" stroke="black" stroke-width="0.56"/>
<path d="M183.38 7.7609C164.084 -1.22116 148.8 -3.15908 148.8 7.76091C148.8 18.6809 164.62 17.9809 183.38 7.7609Z" fill="#6D6D6D" stroke="black" stroke-width="0.56"/>
<path d="M183.24 7.7609C202.536 -1.22116 217.82 -3.15908 217.82 7.76091C217.82 18.6809 202 17.9809 183.24 7.7609Z" fill="#6D6D6D" stroke="black" stroke-width="0.56"/>
<path d="M183.38 1.40039C186.154 1.40039 188.654 2.15586 190.451 3.3623C192.25 4.56992 193.32 6.20815 193.32 7.98047C193.32 9.75276 192.25 11.3911 190.451 12.5986C188.654 13.8051 186.154 14.5605 183.38 14.5605C180.606 14.5605 178.107 13.805 176.31 12.5986C174.511 11.3911 173.441 9.75282 173.44 7.98047C173.44 6.20806 174.511 4.56994 176.31 3.3623C178.107 2.1559 180.606 1.40044 183.38 1.40039Z" fill="#6D6D6D" stroke="black" stroke-width="0.56"/>
<path d="M168.8 46.1415C168.8 39.1015 179.68 38.6215 179.68 46.1415M186.56 46.1415C186.56 39.1015 197.44 38.6215 197.44 46.1415" stroke="black" stroke-width="0.64"/>
<path d="M177.58 49.7952C180.46 53.3152 185.42 52.9952 188.62 49.7952" stroke="black" stroke-width="0.8"/>
<path d="M136.672 109.03C134.305 109.03 134.584 100.72 136.672 100.72C138.761 100.72 138.482 93.2198 136.672 93.2198C134.862 93.2198 134.166 84.9699 136.672 84.9699H144H152C149.494 84.9699 150.19 93.2198 152 93.2198C154 93.2198 154.506 100.72 152 100.72C149.494 100.72 150.19 109.03 152 109.03H144H136.672Z" fill="#0FBCEB"/>
<path d="M144 109.03H136.672C134.305 109.03 134.584 100.72 136.672 100.72C138.761 100.72 138.482 93.2198 136.672 93.2198C134.862 93.2198 134.166 84.9699 136.672 84.9699H152C149.494 84.9699 150.19 93.2198 152 93.2198C154 93.2198 154.506 100.72 152 100.72C149.494 100.72 150.19 109.03 152 109.03H144ZM144 109.03C142.19 109.03 141.494 100.72 144 100.72C146.792 100.801 146 93.2198 144 93.2198C142.19 93.2198 141.494 84.9699 144 84.9699" stroke="black"/>
<path d="M195.779 155.048V133.793C234.74 133.793 234.74 231.715 195.779 231.715V209.322C223.173 216.723 221.646 145.939 195.779 155.048Z" fill="#FCBE04" stroke="black" stroke-width="1.5466"/>
<rect x="33.3927" y="107.941" width="18.442" height="125" rx="9" transform="rotate(-35 33.3927 107.941)" fill="#FCBE04" stroke="black" stroke-width="2"/>
<path d="M196 153.224V131.97C234.961 131.97 234.961 229.891 196 229.891V207.499C223.393 214.9 221.867 144.115 196 153.224Z" fill="#FCBE04" stroke="black" stroke-width="1.5466"/>
<rect x="100" y="108.97" width="95" height="144" rx="9" fill="#FCBE04" stroke="black" stroke-width="2"/>
<path d="M49.5104 86.4657L18.7432 108.009C13.3363 111.795 13.4081 119.717 19.9734 120.4C37.3549 122.206 58.9202 107.03 60.8309 90.9361C61.5399 84.964 54.4368 83.0162 49.5104 86.4657Z" fill="#FCBE04" stroke="black" stroke-width="2"/>
<path d="M129.743 184.806C129.743 195.261 163.768 194.97 163.768 184.806" stroke="black" stroke-width="5.15534"/>
<ellipse cx="164.603" cy="172.063" rx="2.06213" ry="3.0932" fill="black"/>
<ellipse cx="130.062" cy="172.063" rx="2.06213" ry="3.0932" fill="black"/>
</svg>
