<svg width="88" height="88" viewBox="0 0 88 88" fill="none" xmlns="http://www.w3.org/2000/svg">
<path d="M30.485 61.6959L43.55 48.6309L56.615 61.6959L61.6958 56.615L48.6308 43.55L61.6958 30.485L56.615 25.4042L43.55 38.4692L30.485 25.4042L25.4041 30.485L38.4691 43.55L25.4041 56.615L30.485 61.6959ZM43.55 79.8417C38.5296 79.8417 33.8117 78.889 29.3962 76.9837C24.9807 75.0784 21.1399 72.4926 17.8736 69.2264C14.6074 65.9601 12.0216 62.1193 10.1163 57.7038C8.21096 53.2883 7.2583 48.5704 7.2583 43.55C7.2583 38.5297 8.21096 33.8118 10.1163 29.3963C12.0216 24.9808 14.6074 21.1399 17.8736 17.8737C21.1399 14.6074 24.9807 12.0216 29.3962 10.1163C33.8117 8.21102 38.5296 7.25836 43.55 7.25836C48.5703 7.25836 53.2882 8.21102 57.7037 10.1163C62.1192 12.0216 65.9601 14.6074 69.2263 17.8737C72.4926 21.1399 75.0784 24.9808 76.9837 29.3963C78.889 33.8118 79.8416 38.5297 79.8416 43.55C79.8416 48.5704 78.889 53.2883 76.9837 57.7038C75.0784 62.1193 72.4926 65.9601 69.2263 69.2264C65.9601 72.4926 62.1192 75.0784 57.7037 76.9837C53.2882 78.889 48.5703 79.8417 43.55 79.8417ZM43.55 72.5834C51.6551 72.5834 58.5203 69.7708 64.1455 64.1456C69.7707 58.5203 72.5833 51.6552 72.5833 43.55C72.5833 35.4449 69.7707 28.5797 64.1455 22.9545C58.5203 17.3293 51.6551 14.5167 43.55 14.5167C35.4448 14.5167 28.5797 17.3293 22.9544 22.9545C17.3292 28.5797 14.5166 35.4449 14.5166 43.55C14.5166 51.6552 17.3292 58.5203 22.9544 64.1456C28.5797 69.7708 35.4448 72.5834 43.55 72.5834Z" fill="#1D1B20"/>
</svg>
