<svg preserveAspectRatio="none" width="100%" height="100%" overflow="visible" style="display: block;" viewBox="0 0 77.5 77.5" fill="none" xmlns="http://www.w3.org/2000/svg">
<path id="icon" d="M24.8 58.125L38.75 44.175L52.7 58.125L58.125 52.7L44.175 38.75L58.125 24.8L52.7 19.375L38.75 33.325L24.8 19.375L19.375 24.8L33.325 38.75L19.375 52.7L24.8 58.125ZM38.75 77.5C33.3896 77.5 28.3521 76.4828 23.6375 74.4484C18.9229 72.414 14.8219 69.6531 11.3344 66.1656C7.84687 62.6781 5.08594 58.5771 3.05156 53.8625C1.01719 49.1479 0 44.1104 0 38.75C0 33.3896 1.01719 28.3521 3.05156 23.6375C5.08594 18.9229 7.84687 14.8219 11.3344 11.3344C14.8219 7.84687 18.9229 5.08594 23.6375 3.05156C28.3521 1.01719 33.3896 0 38.75 0C44.1104 0 49.1479 1.01719 53.8625 3.05156C58.5771 5.08594 62.6781 7.84687 66.1656 11.3344C69.6531 14.8219 72.414 18.9229 74.4484 23.6375C76.4828 28.3521 77.5 33.3896 77.5 38.75C77.5 44.1104 76.4828 49.1479 74.4484 53.8625C72.414 58.5771 69.6531 62.6781 66.1656 66.1656C62.6781 69.6531 58.5771 72.414 53.8625 74.4484C49.1479 76.4828 44.1104 77.5 38.75 77.5ZM38.75 69.75C47.4042 69.75 54.7344 66.7469 60.7406 60.7406C66.7469 54.7344 69.75 47.4042 69.75 38.75C69.75 30.0958 66.7469 22.7656 60.7406 16.7594C54.7344 10.7531 47.4042 7.75 38.75 7.75C30.0958 7.75 22.7656 10.7531 16.7594 16.7594C10.7531 22.7656 7.75 30.0958 7.75 38.75C7.75 47.4042 10.7531 54.7344 16.7594 60.7406C22.7656 66.7469 30.0958 69.75 38.75 69.75Z" fill="var(--fill-0, #671A1A)"/>
</svg>
