<svg width="415" height="121" viewBox="0 0 415 121" fill="none" xmlns="http://www.w3.org/2000/svg">
<path d="M206.079 30.0781C206.351 35.6332 205.949 41.6755 205.968 48.8712C226.117 40.8685 217.964 27.7668 215.725 3.56556C215.589 2.09771 217.239 1.25535 218.277 2.24381C228.891 12.3525 241.315 23.3809 242.067 45.5781C243.438 38.089 250.231 19.4973 259.054 4.58101C259.894 3.16139 261.927 3.92049 261.865 5.59245C261.163 24.6415 266.022 33.8746 276.5 45.5071C277.512 46.6303 279.312 45.7409 279.241 44.1934C278.803 34.5922 280.67 25.1904 288.589 5.26834C289.206 3.7147 291.398 4.05997 291.602 5.73078C294.228 27.2378 299.26 37.5494 313.191 48.3439C313.615 48.6721 314.185 48.7476 314.671 48.5374C327.04 43.194 324.375 37.4806 317.364 2.93818C317.087 1.57738 318.447 0.516544 319.581 1.22832C336.35 11.755 343.288 25.6849 347.089 48.1338C344.494 31.2556 358.438 20.7167 367.796 4.0662C368.57 2.68922 370.63 3.07289 370.799 4.66354C373.051 25.7969 369.85 36.0042 383.81 48.0896C384.346 48.5536 385.132 48.5668 385.687 48.129C402.92 34.5442 403.725 23.7132 398.035 5.46347C397.535 3.85952 399.326 2.60736 400.453 3.80634C414.688 18.9473 413.801 29.12 413.852 48.0896V119.5L1.3411 117C1.34109 88.0002 0.573654 48.6896 1.34106 48.3803C20.7233 40.567 12.4858 28.2927 10.0018 5.30144C9.82384 3.65418 13.1083 2.93427 14.5402 4.29748C24.451 13.7331 35.1234 24.5242 36.1291 44.5995C36.1755 45.5263 36.1561 45.5805 36.3529 44.6621C37.9343 37.2824 43.6745 21.6252 51.2106 7.98703C52.1593 6.27011 55.9119 6.80148 55.9024 8.62606C55.8196 24.4147 60.0104 33.1749 68.5158 43.1314C69.7923 44.6256 73.3057 43.9269 73.2873 42.2173C73.1975 33.9051 75.0187 25.1933 81.1639 9.1761C81.8536 7.37855 85.935 7.6298 86.2031 9.47431C88.9141 28.1267 94.0056 37.8371 106.584 47.7881C107.376 48.415 108.779 48.554 109.792 48.0804C120.892 42.8905 118.323 36.607 111.639 3.78829C111.335 2.29572 113.975 1.38036 115.582 2.46341C130.984 12.8436 137.538 26.5519 141.192 48.1338C138.77 32.3798 150.757 22.1487 159.974 7.31553C161.007 5.65349 165.047 5.99125 165.204 7.78117C166.835 26.3745 164.762 36.139 176.984 47.2658C177.908 48.1072 179.802 48.132 180.795 47.3247C196.442 34.6074 197.643 24.1619 192.739 7.44591C192.224 5.69224 195.518 4.79749 196.833 6.36417C203.789 14.649 205.677 21.8258 206.079 30.0781Z" fill="#0ADE2E"/>
<path d="M205.968 48.8712C205.921 30.9859 208.472 20.2259 196.833 6.36417C195.518 4.79749 192.224 5.69224 192.739 7.44591C197.643 24.1619 196.442 34.6074 180.795 47.3247C179.802 48.132 177.908 48.1072 176.984 47.2658C164.762 36.139 166.835 26.3745 165.204 7.78117C165.047 5.99125 161.007 5.65349 159.974 7.31553C150.757 22.1487 138.77 32.3798 141.192 48.1338C137.538 26.5519 130.984 12.8436 115.582 2.46341C113.975 1.38036 111.335 2.29572 111.639 3.78829C118.323 36.607 120.892 42.8905 109.792 48.0804C108.779 48.554 107.376 48.415 106.584 47.7881C94.0056 37.8371 88.9141 28.1267 86.2031 9.47431C85.935 7.6298 81.8536 7.37855 81.1639 9.1761C75.0187 25.1933 73.1975 33.9051 73.2873 42.2173C73.3057 43.9269 69.7923 44.6256 68.5158 43.1314C60.0104 33.1749 55.8196 24.4147 55.9024 8.62606C55.9119 6.80148 52.1593 6.27011 51.2106 7.98703C43.6745 21.6252 37.9343 37.2824 36.3529 44.6621C36.1561 45.5805 36.1755 45.5263 36.1291 44.5995C35.1234 24.5242 24.451 13.7331 14.5402 4.29748C13.1083 2.93427 9.82384 3.65418 10.0018 5.30144C12.4858 28.2927 20.7233 40.567 1.34106 48.3803C0.573654 48.6896 1.34109 88.0002 1.3411 117L413.852 119.5V48.0896C413.801 29.12 414.688 18.9473 400.453 3.80634C399.326 2.60736 397.535 3.85952 398.035 5.46347C403.725 23.7131 402.92 34.5442 385.687 48.129C385.132 48.5668 384.346 48.5536 383.81 48.0896C369.85 36.0042 373.051 25.7969 370.799 4.66354C370.63 3.07289 368.57 2.68922 367.796 4.0662C358.438 20.7167 344.494 31.2556 347.089 48.1338C343.288 25.6849 336.35 11.755 319.581 1.22832C318.447 0.516544 317.087 1.57738 317.364 2.93818C324.375 37.4806 327.04 43.194 314.671 48.5374C314.185 48.7476 313.615 48.6721 313.191 48.3439C299.26 37.5494 294.228 27.2378 291.602 5.73078C291.398 4.05997 289.206 3.7147 288.589 5.26834C280.67 25.1904 278.803 34.5922 279.241 44.1934C279.312 45.7409 277.512 46.6303 276.5 45.5071C266.022 33.8746 261.163 24.6415 261.865 5.59245C261.927 3.92049 259.894 3.16139 259.054 4.58101C250.231 19.4973 243.438 38.089 242.067 45.5781C241.315 23.3809 228.891 12.3525 218.277 2.24381C217.239 1.25535 215.589 2.09771 215.725 3.56556C217.964 27.7668 226.117 40.8685 205.968 48.8712ZM205.968 48.8712C205.353 49.1157 206.249 24.8354 206.249 25.5294" stroke="#089E21" stroke-width="2"/>
</svg>
