<svg width="189" height="463" viewBox="0 0 189 463" fill="none" xmlns="http://www.w3.org/2000/svg">
<g filter="url(#filter0_d_43_55)">
<path d="M74.3919 203.594C75.3105 220.984 43.4289 237.123 27.9392 181.623C42.1201 178.109 73.4733 186.204 74.3919 203.594Z" fill="#0FDA31" stroke="black" stroke-width="1.38164"/>
<path d="M68.7773 212.698C64.5157 214.639 36.4597 180.876 30.7773 183.981" stroke="#089E21"/>
<path d="M53.7178 325.546C75.257 319.077 79.5426 269.929 4.77734 274.021C7.31638 294.264 32.1786 332.014 53.7178 325.546Z" fill="#0FDA31" stroke="black" stroke-width="1.38164"/>
<path d="M89.7626 454.544V395.824M135.343 333.42C101.802 342.712 89.7626 355.881 89.7626 395.824M89.7626 395.824C89.7626 355.881 97.3652 317.531 56.8193 317.531" stroke="#0ED730" stroke-width="4.60548"/>
<path d="M112.394 325.546C111.106 347.999 155.824 368.836 177.55 297.18C157.66 292.642 113.683 303.094 112.394 325.546Z" fill="#0FDA31" stroke="black" stroke-width="1.38164"/>
<path d="M154.292 301.779C152.069 308.766 157.256 314.282 165.777 310.605" stroke="#089E21"/>
<path d="M145.507 303.779C142.358 313.561 149.705 321.283 161.777 316.135" stroke="#089E21"/>
<path d="M124.807 317.779C120.361 331.054 130.734 341.535 147.777 334.548" stroke="#089E21"/>
<path d="M133.807 309.779C129.361 321.657 139.734 331.034 156.777 324.783" stroke="#089E21"/>
<path d="M59.7773 316.671C54.0577 319.28 16.4036 273.875 8.77734 278.051" stroke="#089E21"/>
<path d="M119.777 336.779C125.777 339.279 165.277 295.779 173.277 299.779" stroke="#089E21"/>
<path d="M92.2713 366.779V300.779M124.777 230.638C100.857 241.082 92.2713 255.884 92.2713 300.779M92.2713 300.779C92.2713 255.884 97.6932 212.779 68.7773 212.779" stroke="#0FDA31" stroke-width="4.60548"/>
<path d="M117.163 226.83C116.244 244.221 148.126 260.359 163.616 204.859C149.435 201.345 118.081 209.44 117.163 226.83Z" fill="#0FDA31" stroke="black" stroke-width="1.38164"/>
<path d="M122.777 235.698C127.039 237.639 155.095 203.876 160.777 206.981" stroke="#089E21"/>
<path d="M145.121 210.376C143.639 215.267 147.096 219.128 152.777 216.554" stroke="#089E21"/>
<path d="M139.249 212.376C137.212 219.363 141.966 224.879 149.777 221.201" stroke="#089E21"/>
<path d="M125.278 222.779C122.278 232.279 129.278 239.779 140.778 234.779" stroke="#089E21"/>
<path d="M131.472 215.779C128.472 225.279 135.472 232.779 146.972 227.779" stroke="#089E21"/>
<path d="M27.3054 279.779C29.3431 286.766 24.5887 292.282 16.7773 288.605" stroke="#089E21"/>
<path d="M35.1767 281.779C37.7701 292.259 31.719 300.533 21.7773 295.017" stroke="#089E21"/>
<path d="M55.7906 297.779C60.0511 311.054 50.1101 321.535 33.7773 314.548" stroke="#089E21"/>
<path d="M47.7476 286.779C52.1935 300.753 41.8202 311.785 24.7773 304.43" stroke="#089E21"/>
<line x1="93.7773" y1="273.779" x2="93.7773" y2="168.779" stroke="#0FDA31" stroke-width="4"/>
<path d="M43.4341 185.779C44.9161 190.67 41.4583 194.531 35.7773 191.957" stroke="#089E21"/>
<path d="M49.3054 187.779C51.3431 194.766 46.5887 200.282 38.7773 196.605" stroke="#089E21"/>
<path d="M63.2768 198.182C66.2769 207.682 59.2771 215.182 47.7766 210.182" stroke="#089E21"/>
<path d="M57.0825 191.182C60.0825 200.682 53.0827 208.182 41.5823 203.182" stroke="#089E21"/>
<ellipse cx="164.927" cy="85.1412" rx="19.2" ry="17.2" fill="#C0392B"/>
<ellipse cx="72.9266" cy="33.1412" rx="19.2" ry="17.2" fill="#C0392B"/>
<ellipse cx="147.327" cy="45.1412" rx="19.2" ry="17.2" fill="#C0392B"/>
<ellipse cx="112.927" cy="24.3412" rx="19.2" ry="17.2" fill="#C0392B"/>
<ellipse cx="112.927" cy="145.941" rx="19.2" ry="17.2" fill="#C0392B"/>
<ellipse cx="147.327" cy="129.141" rx="19.2" ry="17.2" fill="#C0392B"/>
<ellipse cx="43.327" cy="68.3412" rx="19.2" ry="17.2" fill="#C0392B"/>
<ellipse cx="45.7273" cy="111.541" rx="19.2" ry="17.2" fill="#C0392B"/>
<ellipse cx="77.7273" cy="145.941" rx="19.2" ry="17.2" fill="#C0392B"/>
<path d="M103.137 76.169C135.987 100.489 166.067 24.009 149.374 12.0983C132.681 0.187573 70.2863 51.849 103.137 76.169Z" fill="#FF6B6B" stroke="black" stroke-width="0.64"/>
<path d="M109.849 86.4548C126.138 123.942 190.428 72.7481 181.927 54.0867C173.426 35.4253 93.5595 48.9679 109.849 86.4548Z" fill="#FF6B6B" stroke="black" stroke-width="0.64"/>
<path d="M97.6488 79.1465C138.446 76.6609 112.328 -1.26124 91.8849 0.344567C71.4413 1.95038 56.8514 81.632 97.6488 79.1465Z" fill="#FF6B6B" stroke="black" stroke-width="0.64"/>
<path d="M85.7889 83.9912C115.444 55.8631 45.3491 12.9594 30.7207 27.3304C16.0922 41.7014 56.134 112.119 85.7889 83.9912Z" fill="#FF6B6B" stroke="black" stroke-width="0.64"/>
<path d="M90.6327 96.8757C95.2693 56.2666 13.9956 68.4564 12.0271 88.8682C10.0585 109.28 85.996 137.485 90.6327 96.8757Z" fill="#FF6B6B" stroke="black" stroke-width="0.64"/>
<path d="M94.5596 107.441C72.0084 73.3524 17.5847 134.932 29.1971 151.834C40.8096 168.736 117.111 141.53 94.5596 107.441Z" fill="#FF6B6B" stroke="black" stroke-width="0.64"/>
<path d="M108.069 97.2189C68.8817 85.601 66.7734 167.757 86.5332 173.24C106.293 178.723 147.256 108.837 108.069 97.2189Z" fill="#FF6B6B" stroke="black" stroke-width="0.64"/>
<path d="M112.134 91.2632C74.6472 107.552 125.841 171.843 144.502 163.341C163.164 154.84 149.621 74.9741 112.134 91.2632Z" fill="#FF6B6B" stroke="black" stroke-width="0.64"/>
<path d="M110.434 86.2392C92.1881 122.814 172.729 139.156 181.561 120.648C190.392 102.141 128.68 49.6649 110.434 86.2392Z" fill="#FF6B6B" stroke="black" stroke-width="0.64"/>
<path d="M105.353 73.5412C102.553 53.9412 113.753 49.5412 132.953 46.3412C132.953 69.0539 118.553 82.3412 105.353 73.5412Z" fill="#C0392B" stroke="black" stroke-width="0.64"/>
<path d="M97.1375 76.1186C82.3939 62.9039 88.1453 52.3341 100.796 37.5413C115.396 54.9402 112.906 74.375 97.1375 76.1186Z" fill="#C0392B" stroke="black" stroke-width="0.64"/>
<path d="M87.7875 79.8451C67.9991 79.1991 65.6108 67.4052 65.7935 47.9412C88.1611 51.8852 98.746 68.3738 87.7875 79.8451Z" fill="#C0392B" stroke="black" stroke-width="0.64"/>
<path d="M85.4834 90.0132C69.9093 102.238 60.4988 94.7386 48.1275 79.7109C67.7973 68.3546 86.5044 74.1817 85.4834 90.0132Z" fill="#C0392B" stroke="black" stroke-width="0.64"/>
<path d="M92.1651 99.1552C88.0927 118.531 76.0633 118.835 56.9267 115.275C64.6949 93.9321 82.771 86.3712 92.1651 99.1552Z" fill="#C0392B" stroke="black" stroke-width="0.64"/>
<path d="M99.7995 101.861C109.134 119.321 100.115 127.287 83.1669 136.861C75.3987 115.518 84.3857 98.1065 99.7995 101.861Z" fill="#C0392B" stroke="black" stroke-width="0.64"/>
<path d="M109.099 97.68C127.473 105.055 125.684 116.955 118.855 135.182C99.1853 123.826 94.8781 104.712 109.099 97.68Z" fill="#C0392B" stroke="black" stroke-width="0.64"/>
<path d="M110.899 90.6842C129.715 84.5233 135.993 94.789 142.478 113.142C120.11 117.086 104.524 105.212 110.899 90.6842Z" fill="#C0392B" stroke="black" stroke-width="0.64"/>
<path d="M107.814 81.8516C118.268 65.0373 129.676 68.8659 146.441 78.7561C131.842 96.155 112.27 97.0776 107.814 81.8516Z" fill="#C0392B" stroke="black" stroke-width="0.64"/>
<circle cx="99.4674" cy="87.2821" r="16.9408" fill="#4F1515" stroke="black" stroke-width="1.6"/>
</g>
<defs>
<filter id="filter0_d_43_55" x="0" y="0" width="188.127" height="463.134" filterUnits="userSpaceOnUse" color-interpolation-filters="sRGB">
<feFlood flood-opacity="0" result="BackgroundImageFix"/>
<feColorMatrix in="SourceAlpha" type="matrix" values="0 0 0 0 0 0 0 0 0 0 0 0 0 0 0 0 0 0 127 0" result="hardAlpha"/>
<feOffset dy="4"/>
<feGaussianBlur stdDeviation="2"/>
<feComposite in2="hardAlpha" operator="out"/>
<feColorMatrix type="matrix" values="0 0 0 0 0 0 0 0 0 0 0 0 0 0 0 0 0 0 0.25 0"/>
<feBlend mode="normal" in2="BackgroundImageFix" result="effect1_dropShadow_43_55"/>
<feBlend mode="normal" in="SourceGraphic" in2="effect1_dropShadow_43_55" result="shape"/>
</filter>
</defs>
</svg>
