<svg width="175" height="378" viewBox="0 0 175 378" fill="none" xmlns="http://www.w3.org/2000/svg">
<path d="M70.3919 126.107C71.3105 143.498 39.4289 159.636 23.9392 104.136C38.1201 100.622 69.4733 108.717 70.3919 126.107Z" fill="#0FDA31" stroke="black" stroke-width="1.38164"/>
<path d="M64.7773 135.212C60.5157 137.152 32.4597 103.39 26.7773 106.494" stroke="#089E21"/>
<path d="M49.7178 248.059C71.257 241.59 75.5426 192.442 0.777344 196.534C3.31638 216.777 28.1786 254.527 49.7178 248.059Z" fill="#0FDA31" stroke="black" stroke-width="1.38164"/>
<path d="M85.7626 377.057V318.337M131.343 255.933C97.8016 265.225 85.7626 278.395 85.7626 318.337M85.7626 318.337C85.7626 278.395 93.3652 240.044 52.8193 240.044" stroke="#0ED730" stroke-width="4.60548"/>
<path d="M108.394 248.059C107.106 270.512 151.824 291.349 173.55 219.693C153.66 215.155 109.683 225.607 108.394 248.059Z" fill="#0FDA31" stroke="black" stroke-width="1.38164"/>
<path d="M150.292 224.292C148.069 231.279 153.256 236.795 161.777 233.118" stroke="#089E21"/>
<path d="M141.507 226.292C138.358 236.074 145.705 243.796 157.777 238.648" stroke="#089E21"/>
<path d="M120.807 240.292C116.361 253.567 126.734 264.048 143.777 257.061" stroke="#089E21"/>
<path d="M129.807 232.292C125.361 244.17 135.734 253.547 152.777 247.296" stroke="#089E21"/>
<path d="M55.7773 239.184C50.0577 241.793 12.4036 196.389 4.77734 200.564" stroke="#089E21"/>
<path d="M115.777 259.292C121.777 261.792 161.277 218.292 169.277 222.292" stroke="#089E21"/>
<path d="M88.2713 289.292V223.292M120.777 153.151C96.8571 163.595 88.2713 178.397 88.2713 223.292M88.2713 223.292C88.2713 178.397 93.6932 135.292 64.7773 135.292" stroke="#0FDA31" stroke-width="4.60548"/>
<path d="M113.163 149.344C112.244 166.734 144.126 182.873 159.616 127.373C145.435 123.858 114.081 131.953 113.163 149.344Z" fill="#0FDA31" stroke="black" stroke-width="1.38164"/>
<path d="M118.777 158.212C123.039 160.152 151.095 126.39 156.777 129.494" stroke="#089E21"/>
<path d="M141.121 132.889C139.639 137.78 143.096 141.641 148.777 139.067" stroke="#089E21"/>
<path d="M135.249 134.889C133.212 141.876 137.966 147.392 145.777 143.715" stroke="#089E21"/>
<path d="M121.278 145.292C118.278 154.792 125.278 162.292 136.778 157.292" stroke="#089E21"/>
<path d="M127.472 138.292C124.472 147.792 131.472 155.292 142.972 150.292" stroke="#089E21"/>
<path d="M23.3054 202.292C25.3431 209.279 20.5887 214.795 12.7773 211.118" stroke="#089E21"/>
<path d="M31.1767 204.292C33.7701 214.773 27.719 223.047 17.7773 217.531" stroke="#089E21"/>
<path d="M51.7906 220.292C56.0511 233.567 46.1101 244.048 29.7773 237.061" stroke="#089E21"/>
<path d="M43.7476 209.292C48.1935 223.266 37.8202 234.298 20.7773 226.943" stroke="#089E21"/>
<line x1="89.7773" y1="196.292" x2="89.7773" y2="91.2922" stroke="#0FDA31" stroke-width="4"/>
<path d="M88.9462 92.4922C58.5462 92.4922 54.9462 40.0923 88.9462 1.29224C144.146 79.6923 88.9462 92.4922 88.9462 92.4922Z" fill="#0FDA31" stroke="black" stroke-width="1.6"/>
<path d="M39.4341 108.292C40.9161 113.183 37.4583 117.044 31.7773 114.47" stroke="#089E21"/>
<path d="M45.3054 110.292C47.3431 117.279 42.5887 122.795 34.7773 119.118" stroke="#089E21"/>
<path d="M59.2768 120.696C62.2769 130.196 55.2771 137.696 43.7766 132.696" stroke="#089E21"/>
<path d="M53.0825 113.696C56.0825 123.196 49.0827 130.696 37.5823 125.696" stroke="#089E21"/>
<path d="M89.461 88.2922C114.796 67.6327 89.9678 2.29209 87.941 2.29224C85.9142 2.29238 78.8965 56.6111 89.461 88.2922Z" fill="#6EC6FF" stroke="black"/>
</svg>
