<svg width="175" height="370" viewBox="0 0 175 370" fill="none" xmlns="http://www.w3.org/2000/svg">
<path d="M70.3919 118.31C71.3105 135.7 39.4289 151.839 23.9392 96.3393C38.1201 92.8248 69.4733 100.92 70.3919 118.31Z" fill="#0FDA31" stroke="black" stroke-width="1.38164"/>
<path d="M64.7773 127.415C60.5157 129.355 32.4597 95.5924 26.7773 98.697" stroke="#089E21"/>
<path d="M49.7178 240.262C71.257 233.793 75.5426 184.645 0.777344 188.737C3.31638 208.98 28.1786 246.73 49.7178 240.262Z" fill="#0FDA31" stroke="black" stroke-width="1.38164"/>
<path d="M85.7626 369.26V310.54M131.343 248.136C97.8016 257.428 85.7626 270.598 85.7626 310.54M85.7626 310.54C85.7626 270.598 93.3652 232.247 52.8193 232.247" stroke="#0ED730" stroke-width="4.60548"/>
<path d="M108.394 240.262C107.106 262.715 151.824 283.552 173.55 211.896C153.66 207.358 109.683 217.81 108.394 240.262Z" fill="#0FDA31" stroke="black" stroke-width="1.38164"/>
<path d="M150.292 216.495C148.069 223.482 153.256 228.998 161.777 225.321" stroke="#089E21"/>
<path d="M141.507 218.495C138.358 228.277 145.705 235.999 157.777 230.851" stroke="#089E21"/>
<path d="M120.807 232.495C116.361 245.77 126.734 256.251 143.777 249.264" stroke="#089E21"/>
<path d="M129.807 224.495C125.361 236.373 135.734 245.75 152.777 239.499" stroke="#089E21"/>
<path d="M55.7773 231.387C50.0577 233.996 12.4036 188.591 4.77734 192.767" stroke="#089E21"/>
<path d="M115.777 251.495C121.777 253.995 161.277 210.495 169.277 214.495" stroke="#089E21"/>
<path d="M88.2713 281.495V215.495M120.777 145.354C96.8571 155.798 88.2713 170.6 88.2713 215.495M88.2713 215.495C88.2713 170.6 93.6932 127.495 64.7773 127.495" stroke="#0FDA31" stroke-width="4.60548"/>
<path d="M113.163 141.546C112.244 158.937 144.126 175.076 159.616 119.576C145.435 116.061 114.081 124.156 113.163 141.546Z" fill="#0FDA31" stroke="black" stroke-width="1.38164"/>
<path d="M118.777 150.415C123.039 152.355 151.095 118.592 156.777 121.697" stroke="#089E21"/>
<path d="M141.121 125.092C139.639 129.983 143.096 133.844 148.777 131.27" stroke="#089E21"/>
<path d="M135.249 127.092C133.212 134.079 137.966 139.595 145.777 135.918" stroke="#089E21"/>
<path d="M121.278 137.495C118.278 146.995 125.278 154.495 136.778 149.495" stroke="#089E21"/>
<path d="M127.472 130.495C124.472 139.995 131.472 147.495 142.972 142.495" stroke="#089E21"/>
<path d="M23.3054 194.495C25.3431 201.482 20.5887 206.998 12.7773 203.321" stroke="#089E21"/>
<path d="M31.1767 196.495C33.7701 206.976 27.719 215.25 17.7773 209.734" stroke="#089E21"/>
<path d="M51.7906 212.495C56.0511 225.77 46.1101 236.251 29.7773 229.264" stroke="#089E21"/>
<path d="M43.7476 201.495C48.1935 215.469 37.8202 226.501 20.7773 219.146" stroke="#089E21"/>
<line x1="89.7773" y1="188.495" x2="89.7773" y2="83.4951" stroke="#0FDA31" stroke-width="4"/>
<path d="M39.4341 100.495C40.9161 105.386 37.4583 109.247 31.7773 106.673" stroke="#089E21"/>
<path d="M45.3054 102.495C47.3431 109.482 42.5887 114.998 34.7773 111.321" stroke="#089E21"/>
<path d="M59.2768 112.898C62.2769 122.398 55.2771 129.898 43.7766 124.898" stroke="#089E21"/>
<path d="M53.0825 105.898C56.0825 115.398 49.0827 122.898 37.5823 117.898" stroke="#089E21"/>
<path d="M89.7773 0.585205C99.1766 5.79016 100.585 9.08349 101.777 15.0852L89.7773 25.0852L79.7773 17.0852C80.8839 9.68843 82.0836 5.73694 89.7773 0.585205Z" fill="#FF9B19" stroke="black"/>
<path d="M66.7773 42.5852L89.7773 82.5852L103.195 51.5852C97.5678 34.1917 99.6689 26.1286 79.6953 6.58521C70.0769 22.1882 68.4693 26.9485 66.7773 42.5852Z" fill="#FF9B19" stroke="black"/>
<path d="M101.278 6.08521C108.36 20.2435 111.719 28.3738 112.278 44.5852L90.2777 83.0852L83.2777 56.5852C82.7147 36.06 84.4495 24.7693 101.278 6.08521Z" fill="#FF9B19" stroke="black"/>
<path d="M89.7773 84.5852C60.7393 87.382 75.2773 46.3064 43.7773 43.5852C54.119 42.9965 49.2773 42.0852 64.7773 42.0852C69.7773 42.0852 73.5807 44.9777 75.2773 46.3064C81.8617 51.463 87.3821 60.3939 89.7773 84.5852C92.0354 73.0927 98.2773 59.0852 98.2773 59.0852C101.777 51.5852 108.277 44.5852 114.777 44.5852C121.277 44.5852 128.149 47.9711 134.277 49.0855C107.09 47.1966 108.064 88.2859 89.7773 84.5852Z" fill="#0FDA31"/>
<path d="M89.7773 84.5852C89.0737 84.6995 90.4317 84.5222 89.7773 84.5852ZM89.7773 84.5852C60.7393 87.382 75.2773 46.3064 43.7773 43.5852C54.119 42.9965 49.2773 42.0852 64.7773 42.0852C69.7773 42.0852 73.5807 44.9777 75.2773 46.3064C81.8617 51.463 87.3821 60.3939 89.7773 84.5852ZM89.7773 84.5852C90.0947 84.6846 89.4694 84.5076 89.7773 84.5852ZM89.7773 84.5852C108.064 88.2859 107.09 47.1966 134.277 49.0855C128.149 47.9711 121.277 44.5852 114.777 44.5852C108.277 44.5852 101.777 51.5852 98.2773 59.0852C98.2773 59.0852 92.0354 73.0927 89.7773 84.5852Z" stroke="black"/>
</svg>
