<svg width="238" height="255" viewBox="0 0 238 255" fill="none" xmlns="http://www.w3.org/2000/svg">
<path d="M134.622 79.88C134.622 32.28 171.899 32.28 196.98 32.28H237.349V58.28H196.98C177.225 58.28 159.874 58.28 159.874 79.88H134.622Z" fill="#6D6D6D" stroke="black" stroke-width="0.8"/>
<path d="M133.009 75.48H166.06C168.6 75.48 170.66 77.5395 170.66 80.08C170.66 82.6205 168.6 84.68 166.06 84.68H133.009C130.469 84.68 128.409 82.6205 128.409 80.08C128.409 77.5395 130.469 75.48 133.009 75.48Z" fill="#6D6D6D" stroke="black" stroke-width="0.8"/>
<rect x="183.656" y="11.2002" width="12.488" height="20.72" fill="#6D6D6D" stroke="black" stroke-width="0.56"/>
<path d="M189.9 7.7609C169.919 -1.22116 154.091 -3.15908 154.091 7.76091C154.091 18.6809 170.473 17.9809 189.9 7.7609Z" fill="#6D6D6D" stroke="black" stroke-width="0.56"/>
<path d="M189.756 7.7609C209.738 -1.22116 225.565 -3.15908 225.565 7.76091C225.565 18.6809 209.183 17.9809 189.756 7.7609Z" fill="#6D6D6D" stroke="black" stroke-width="0.56"/>
<path d="M189.9 1.40039C192.777 1.40039 195.369 2.15632 197.232 3.36426C199.099 4.57395 200.204 6.21267 200.204 7.98047C200.204 9.74809 199.098 11.3861 197.232 12.5957C195.369 13.8036 192.777 14.5605 189.9 14.5605C187.024 14.5605 184.433 13.8036 182.569 12.5957C180.703 11.3861 179.598 9.74814 179.598 7.98047C179.598 6.21262 180.703 4.57396 182.569 3.36426C184.433 2.15638 187.024 1.40046 189.9 1.40039Z" fill="#6D6D6D" stroke="black" stroke-width="0.56"/>
<path d="M174.802 42.28C174.802 49.32 186.069 49.8 186.069 42.28M193.193 42.28C193.193 49.32 204.46 49.8 204.46 42.28" stroke="black" stroke-width="0.64"/>
<path d="M189.302 48.3604C190.117 48.3604 190.84 48.579 191.351 48.916C191.863 49.2549 192.13 49.6874 192.13 50.1201C192.13 50.5528 191.863 50.9854 191.351 51.3242C190.84 51.6612 190.117 51.8798 189.302 51.8799C188.486 51.8799 187.762 51.6613 187.252 51.3242C186.739 50.9854 186.474 50.5528 186.474 50.1201C186.474 49.6874 186.739 49.2549 187.252 48.916C187.762 48.5789 188.486 48.3604 189.302 48.3604Z" stroke="black" stroke-width="0.64"/>
<path d="M134.622 79.88C134.622 32.28 171.899 32.28 196.98 32.28H237.349V58.28H196.98C177.225 58.28 159.874 58.28 159.874 79.88H134.622Z" fill="#6D6D6D" stroke="black" stroke-width="0.8"/>
<path d="M133.009 75.48H166.06C168.6 75.48 170.66 77.5395 170.66 80.08C170.66 82.6205 168.6 84.68 166.06 84.68H133.009C130.469 84.68 128.409 82.6205 128.409 80.08C128.409 77.5395 130.469 75.48 133.009 75.48Z" fill="#6D6D6D" stroke="black" stroke-width="0.8"/>
<rect x="183.656" y="11.2002" width="12.488" height="20.72" fill="#6D6D6D" stroke="black" stroke-width="0.56"/>
<path d="M189.9 7.7609C169.919 -1.22116 154.091 -3.15908 154.091 7.76091C154.091 18.6809 170.473 17.9809 189.9 7.7609Z" fill="#6D6D6D" stroke="black" stroke-width="0.56"/>
<path d="M189.756 7.7609C209.738 -1.22116 225.565 -3.15908 225.565 7.76091C225.565 18.6809 209.183 17.9809 189.756 7.7609Z" fill="#6D6D6D" stroke="black" stroke-width="0.56"/>
<path d="M189.9 1.40039C192.777 1.40039 195.369 2.15632 197.232 3.36426C199.099 4.57395 200.204 6.21267 200.204 7.98047C200.204 9.74809 199.098 11.3861 197.232 12.5957C195.369 13.8036 192.777 14.5605 189.9 14.5605C187.024 14.5605 184.433 13.8036 182.569 12.5957C180.703 11.3861 179.598 9.74814 179.598 7.98047C179.598 6.21262 180.703 4.57396 182.569 3.36426C184.433 2.15638 187.024 1.40046 189.9 1.40039Z" fill="#6D6D6D" stroke="black" stroke-width="0.56"/>
<path d="M174.802 42.28C174.802 49.32 186.069 49.8 186.069 42.28M193.193 42.28C193.193 49.32 204.46 49.8 204.46 42.28" stroke="black" stroke-width="0.64"/>
<path d="M189.302 48.3604C190.117 48.3604 190.84 48.579 191.351 48.916C191.863 49.2549 192.13 49.6874 192.13 50.1201C192.13 50.5528 191.863 50.9854 191.351 51.3242C190.84 51.6612 190.117 51.8798 189.302 51.8799C188.486 51.8799 187.762 51.6613 187.252 51.3242C186.739 50.9854 186.474 50.5528 186.474 50.1201C186.474 49.6874 186.739 49.2549 187.252 48.916C187.762 48.5789 188.486 48.3604 189.302 48.3604Z" stroke="black" stroke-width="0.64"/>
<path d="M202.74 155.358V134.104C243.087 134.104 243.087 232.025 202.74 232.025V209.632C231.107 217.033 229.527 146.249 202.74 155.358Z" fill="#FCBE04" stroke="black" stroke-width="1.5466"/>
<rect x="1.41542" y="0.249434" width="18.9325" height="126.503" rx="9" transform="matrix(0.8284 -0.560136 0.587023 0.80957 33.2342 108.845)" fill="#FCBE04" stroke="black" stroke-width="2"/>
<path d="M202.969 153.534V132.28C243.315 132.28 243.315 230.202 202.969 230.202V207.809C231.336 215.21 229.755 144.425 202.969 153.534Z" fill="#FCBE04" stroke="black" stroke-width="1.5466"/>
<rect x="103.52" y="109.28" width="98.4489" height="144" rx="9" fill="#FCBE04" stroke="black" stroke-width="2"/>
<path d="M51.4816 86.6331L19.1833 108.472C13.7048 112.177 13.8366 119.982 20.5189 120.693C38.5989 122.614 61.1394 107.301 63.0103 91.1056C63.6898 85.2236 56.4686 83.2611 51.4816 86.6331Z" fill="#FCBE04" stroke="black" stroke-width="2"/>
<path d="M134.356 185.116C134.356 195.571 169.591 195.281 169.591 185.116" stroke="black" stroke-width="5.15534"/>
<ellipse cx="170.456" cy="172.373" rx="2.13545" ry="3.0932" fill="black"/>
<ellipse cx="134.686" cy="172.373" rx="2.13545" ry="3.0932" fill="black"/>
</svg>
