<svg width="141" height="112" viewBox="0 0 141 112" fill="none" xmlns="http://www.w3.org/2000/svg">
<rect x="38.5469" y="1.5" width="100.704" height="109" rx="13.5" fill="#D9D9D9" stroke="#5D4037" stroke-width="3"/>
<rect x="31.6338" y="1.5" width="100.704" height="109" rx="13.5" fill="#D9D9D9" stroke="#5D4037" stroke-width="3"/>
<rect x="22.9922" y="1.5" width="100.704" height="109" rx="13.5" fill="#D9D9D9" stroke="#5D4037" stroke-width="3"/>
<rect x="7.43652" y="1.5" width="107.617" height="109" rx="13.5" fill="#7F5B50" stroke="#5D4037" stroke-width="3"/>
<ellipse cx="21.4918" cy="29.2923" rx="5.18518" ry="5.16923" fill="black"/>
<ellipse cx="21.4918" cy="67.2" rx="5.18518" ry="5.16923" fill="black"/>
<ellipse cx="21.4918" cy="86.1539" rx="5.18518" ry="5.16923" fill="black"/>
<ellipse cx="21.4918" cy="48.2461" rx="5.18518" ry="5.16923" fill="black"/>
<path d="M21.6627 29.6719C21.6628 16.1976 -9.01806 17.0591 3.94529 37.7361" stroke="#6C6C6C" stroke-width="1.5"/>
<path d="M21.6627 48.6258C21.6628 35.1514 -9.01806 36.013 3.94529 56.6899" stroke="#6C6C6C" stroke-width="1.5"/>
<path d="M21.6627 67.5794C21.6628 54.105 -9.01806 54.9666 3.94529 75.6435" stroke="#6C6C6C" stroke-width="1.5"/>
<path d="M21.6627 86.5332C21.6628 73.0589 -9.01806 73.9205 3.94529 94.5974" stroke="#6C6C6C" stroke-width="1.5"/>
<path d="M58.544 41.6169C50.2477 33.346 40.9143 40.066 47.655 50.4043C55.9513 59.7083 65.2847 50.9214 58.544 41.6169Z" fill="#FFD966" stroke="black" stroke-width="0.9"/>
<path d="M70.9814 44.6673C70.9815 32.9705 59.6154 31.1429 57.0489 43.205C56.316 55.6322 69.1481 55.9983 70.9814 44.6673Z" fill="#FFD966" stroke="black" stroke-width="0.9"/>
<path d="M76.8002 53.1359C85.0966 44.8651 78.3559 35.5605 67.9856 42.2805C58.6529 50.5512 67.4669 59.8559 76.8002 53.1359Z" fill="#FFD966" stroke="black" stroke-width="0.9"/>
<path d="M74.689 63.4671C86.4219 63.4672 88.2551 52.136 76.1558 49.5775C63.6902 48.8468 63.323 61.6395 74.689 63.4671Z" fill="#FFD966" stroke="black" stroke-width="0.9"/>
<path d="M65.2851 69.2681C73.5814 77.5391 82.9148 70.819 76.1741 60.4807C67.8778 51.1767 58.5444 59.9636 65.2851 69.2681Z" fill="#FFD966" stroke="black" stroke-width="0.9"/>
<path d="M52.7208 67.1633C52.7207 78.86 64.0868 80.6876 66.6532 68.6256C67.3861 56.1983 54.554 55.8322 52.7208 67.1633Z" fill="#FFD966" stroke="black" stroke-width="0.9"/>
<path d="M49.0122 48.3635C37.2793 48.3634 35.4461 59.6945 47.5454 62.2531C60.011 62.9838 60.3782 50.1911 49.0122 48.3635Z" fill="#FFD966" stroke="black" stroke-width="0.9"/>
<path d="M48.027 58.8221C39.7305 67.0929 46.4713 76.3975 56.8415 69.6775C66.1743 61.4068 57.3603 52.1021 48.027 58.8221Z" fill="#FFD966" stroke="black" stroke-width="0.9"/>
<path d="M61.418 51.2144C64.646 51.2146 67.2577 53.8223 67.2578 57.0337C67.2578 60.2452 64.6461 62.8538 61.418 62.854C58.1896 62.854 55.5771 60.2454 55.5771 57.0337C55.5773 53.8221 58.1897 51.2144 61.418 51.2144Z" fill="#651400" stroke="black" stroke-width="1.8"/>
</svg>
