<svg width="175" height="182" viewBox="0 0 175 182" fill="none" xmlns="http://www.w3.org/2000/svg">
<path d="M49.7178 52.457C71.257 45.9885 75.5426 -3.15952 0.777344 0.932004C3.31638 21.1751 28.1786 58.9254 49.7178 52.457Z" fill="#0FDA31" stroke="black" stroke-width="1.38164"/>
<path d="M85.7626 181.455V122.735M131.343 60.3313C97.8016 69.6234 85.7626 82.7927 85.7626 122.735M85.7626 122.735C85.7626 82.7927 93.3652 44.4424 52.8193 44.4424" stroke="#0ED730" stroke-width="4.60548"/>
<path d="M108.394 52.4576C107.106 74.9101 151.824 95.7469 173.55 24.0912C153.66 19.5536 109.683 30.005 108.394 52.4576Z" fill="#0FDA31" stroke="black" stroke-width="1.38164"/>
<path d="M55.7773 43.582C50.0577 46.1915 12.4036 0.786759 4.77734 4.9619" stroke="#089E21"/>
<path d="M115.777 63.6905C121.777 66.1905 161.277 22.6905 169.277 26.6905" stroke="#089E21"/>
</svg>
