<svg preserveAspectRatio="none" width="100%" height="100%" overflow="visible" style="display: block;" viewBox="0 0 72 72" fill="none" xmlns="http://www.w3.org/2000/svg">
<path id="Vector" d="M52.4604 3.40805C61.633 9.34536 68.5641 16.8239 71.4587 27.4236C72.6656 38.286 72.3149 48.5617 65.5451 57.515C59.5243 64.5772 52.4392 70.7717 42.8139 71.829C30.5652 72.4717 21.5327 71.6314 11.8983 63.5103C5.28409 57.2225 0.520043 50.3337 0.0248385 41.0021C-0.239327 27.9281 1.48716 19.6852 10.8529 9.94415C21.5409 0.0869465 39.0367 -3.116 52.4604 3.40805ZM28.0074 22.5139C26.7392 23.5542 26.7392 23.5542 26.9078 25.9509C26.913 27.0154 26.9181 28.0798 26.9235 29.1766C26.9266 30.3253 26.9298 31.474 26.9331 32.6575C26.9414 33.867 26.9496 35.0764 26.9582 36.3225C26.9626 37.5358 26.9671 38.7491 26.9717 39.9991C26.9834 43.0083 26.9996 46.0174 27.0199 49.0265C27.6717 49.3506 28.3234 49.6746 28.995 50.0085C31.4352 48.93 31.4352 48.93 34.1563 47.3119C35.1747 46.7328 36.1931 46.1537 37.2424 45.5571C38.3091 44.94 39.3759 44.3229 40.475 43.6872C41.5494 43.0739 42.6238 42.4606 43.7307 41.8287C46.394 40.3072 49.0528 38.7784 51.7081 37.2431C51.7081 36.595 51.7081 35.9469 51.7081 35.2792C47.9451 33.1483 44.1794 31.022 40.4133 28.8965C39.3382 28.2877 38.2632 27.6789 37.1556 27.0516C36.134 26.4756 35.1124 25.8997 34.0599 25.3063C33.1135 24.7715 32.1671 24.2367 31.1921 23.6857C29.2654 22.4365 29.2654 22.4365 28.0074 22.5139Z" fill="var(--fill-0, #671A1A)"/>
</svg>
