<svg preserveAspectRatio="none" width="100%" height="100%" overflow="visible" style="display: block;" viewBox="0 0 66 66" fill="none" xmlns="http://www.w3.org/2000/svg">
<path id="Vector" d="M48.0887 3.12405C56.497 8.56658 62.8504 15.4219 65.5038 25.1383C66.6101 35.0955 66.2887 44.5149 60.083 52.7221C54.5639 59.1958 48.0693 64.874 39.246 65.8433C28.0181 66.4324 19.7383 65.6621 10.9068 58.2177C4.84375 52.4539 0.476706 46.1392 0.0227687 37.5853C-0.219383 25.6008 1.36323 18.0448 9.94854 9.11547C19.7458 0.079701 35.7837 -2.85633 48.0887 3.12405ZM25.6735 20.6377C24.5109 21.5914 24.5109 21.5914 24.6655 23.7884C24.6702 24.7641 24.6749 25.7399 24.6798 26.7452C24.6828 27.7982 24.6857 28.8511 24.6887 29.936C24.6963 31.0447 24.7038 32.1534 24.7117 33.2957C24.7157 34.4078 24.7198 35.52 24.724 36.6658C24.7347 39.4243 24.7497 42.1826 24.7682 44.941C25.3657 45.238 25.9631 45.535 26.5787 45.8411C28.8156 44.8525 28.8156 44.8525 31.31 43.3693C32.2435 42.8384 33.177 42.3076 34.1388 41.7607C35.1167 41.195 36.0946 40.6294 37.1021 40.0466C38.0869 39.4844 39.0718 38.9222 40.0865 38.343C42.5279 36.9482 44.9651 35.5469 47.3991 34.1395C47.3991 33.5454 47.3991 32.9514 47.3991 32.3393C43.9497 30.3859 40.4978 28.4368 37.0455 26.4885C36.06 25.9304 35.0746 25.3723 34.0593 24.7973C33.1228 24.2693 32.1864 23.7414 31.2216 23.1974C30.3541 22.7072 29.4865 22.217 28.5927 21.7119C26.8267 20.5668 26.8267 20.5668 25.6735 20.6377Z" fill="var(--fill-0, black)"/>
</svg>
