<svg width="293" height="333" viewBox="0 0 293 333" fill="none" xmlns="http://www.w3.org/2000/svg">
<g filter="url(#filter0_d_141_2153)">
<path d="M166.994 100.185C166.994 50.9077 204.271 50.9077 229.352 50.9077H269.721V77.824H229.352C209.597 77.824 192.246 77.824 192.246 100.185H166.994Z" fill="#6D6D6D" stroke="black" stroke-width="0.8"/>
<path d="M165.543 95.6301H198.27C200.9 95.6301 203.032 97.7622 203.032 100.392C203.032 103.022 200.9 105.154 198.27 105.154H165.543C162.913 105.154 160.781 103.022 160.781 100.392C160.781 97.7622 162.913 95.6301 165.543 95.6301Z" fill="#6D6D6D" stroke="black" stroke-width="0.8"/>
<rect x="216.028" y="29.0752" width="12.488" height="21.4699" fill="#6D6D6D" stroke="black" stroke-width="0.56"/>
<path d="M222.272 25.5245C202.291 16.2259 186.463 14.2197 186.463 25.5246C186.463 36.8294 202.845 36.1047 222.272 25.5245Z" fill="#6D6D6D" stroke="black" stroke-width="0.56"/>
<path d="M222.127 25.5245C242.109 16.2259 257.937 14.2197 257.937 25.5246C257.937 36.8294 241.554 36.1047 222.127 25.5245Z" fill="#6D6D6D" stroke="black" stroke-width="0.56"/>
<path d="M222.272 18.9299C225.147 18.9299 227.737 19.7119 229.601 20.9622C231.465 22.2135 232.576 23.9121 232.576 25.7512C232.576 27.5903 231.465 29.2889 229.601 30.5403C227.737 31.7905 225.147 32.5735 222.272 32.5735C219.398 32.5734 216.808 31.7904 214.945 30.5403C213.08 29.2889 211.97 27.5904 211.97 25.7512C211.97 23.9121 213.08 22.2135 214.945 20.9622C216.808 19.712 219.398 18.93 222.272 18.9299Z" fill="#6D6D6D" stroke="black" stroke-width="0.56"/>
<path d="M207.174 61.2603C207.174 68.5484 218.441 69.0453 218.441 61.2603M225.565 61.2603C225.565 68.5484 236.832 69.0453 236.832 61.2603" stroke="black" stroke-width="0.64"/>
<path d="M221.674 67.5435C222.487 67.5435 223.209 67.769 223.719 68.1177C224.23 68.4675 224.502 68.9183 224.502 69.3765C224.502 69.8346 224.23 70.2854 223.719 70.6353C223.209 70.9839 222.487 71.2094 221.674 71.2095C220.861 71.2095 220.138 70.984 219.628 70.6353C219.116 70.2854 218.846 69.8346 218.846 69.3765C218.846 68.9183 219.116 68.4675 219.628 68.1177C220.138 67.7689 220.861 67.5435 221.674 67.5435Z" stroke="black" stroke-width="0.64"/>
<path d="M166.994 100.185C166.994 50.9077 204.271 50.9077 229.352 50.9077H269.721V77.824H229.352C209.597 77.824 192.246 77.824 192.246 100.185H166.994Z" fill="#6D6D6D" stroke="black" stroke-width="0.8"/>
<path d="M165.543 95.6301H198.27C200.9 95.6301 203.032 97.7622 203.032 100.392C203.032 103.022 200.9 105.154 198.27 105.154H165.543C162.913 105.154 160.781 103.022 160.781 100.392C160.781 97.7622 162.913 95.6301 165.543 95.6301Z" fill="#6D6D6D" stroke="black" stroke-width="0.8"/>
<rect x="216.028" y="29.0752" width="12.488" height="21.4699" fill="#6D6D6D" stroke="black" stroke-width="0.56"/>
<path d="M222.272 25.5245C202.291 16.2259 186.463 14.2197 186.463 25.5246C186.463 36.8294 202.845 36.1047 222.272 25.5245Z" fill="#6D6D6D" stroke="black" stroke-width="0.56"/>
<path d="M222.127 25.5245C242.109 16.2259 257.937 14.2197 257.937 25.5246C257.937 36.8294 241.554 36.1047 222.127 25.5245Z" fill="#6D6D6D" stroke="black" stroke-width="0.56"/>
<path d="M222.272 18.9299C225.147 18.9299 227.737 19.7119 229.601 20.9622C231.465 22.2135 232.576 23.9121 232.576 25.7512C232.576 27.5903 231.465 29.2889 229.601 30.5403C227.737 31.7905 225.147 32.5735 222.272 32.5735C219.398 32.5734 216.808 31.7904 214.945 30.5403C213.08 29.2889 211.97 27.5904 211.97 25.7512C211.97 23.9121 213.08 22.2135 214.945 20.9622C216.808 19.712 219.398 18.93 222.272 18.9299Z" fill="#6D6D6D" stroke="black" stroke-width="0.56"/>
<path d="M207.174 61.2603C207.174 68.5484 218.441 69.0453 218.441 61.2603M225.565 61.2603C225.565 68.5484 236.832 69.0453 236.832 61.2603" stroke="black" stroke-width="0.64"/>
<path d="M221.674 67.5435C222.487 67.5435 223.209 67.769 223.719 68.1177C224.23 68.4675 224.502 68.9183 224.502 69.3765C224.502 69.8346 224.23 70.2854 223.719 70.6353C223.209 70.9839 222.487 71.2094 221.674 71.2095C220.861 71.2095 220.138 70.984 219.628 70.6353C219.116 70.2854 218.846 69.8346 218.846 69.3765C218.846 68.9183 219.116 68.4675 219.628 68.1177C220.138 67.7689 220.861 67.5435 221.674 67.5435Z" stroke="black" stroke-width="0.64"/>
<path d="M235.112 178.323V156.32C275.459 156.32 275.459 257.692 235.112 257.692V234.51C263.48 242.172 261.899 168.893 235.112 178.323Z" fill="#FCBE04" stroke="black" stroke-width="1.5466"/>
<rect x="1.39293" y="0.245611" width="19.1667" height="129.489" rx="9" transform="matrix(0.819234 -0.57346 0.573693 0.819071 65.6207 130.145)" fill="#FCBE04" stroke="black" stroke-width="2"/>
<path d="M235.341 176.435V154.432C275.687 154.432 275.687 255.804 235.341 255.804V232.622C263.708 240.284 262.127 167.005 235.341 176.435Z" fill="#FCBE04" stroke="black" stroke-width="1.5466"/>
<rect x="135.892" y="130.586" width="98.4489" height="149.145" rx="9" fill="#FCBE04" stroke="black" stroke-width="2"/>
<path d="M83.9714 107.094L51.4008 129.893C45.9933 133.678 46.0416 141.608 52.5953 142.402C70.815 144.61 93.7294 128.504 95.4091 111.553C96.002 105.569 88.8983 103.645 83.9714 107.094Z" fill="#FCBE04" stroke="black" stroke-width="2"/>
<path d="M166.729 209.13C166.729 219.953 201.963 219.653 201.963 209.13" stroke="black" stroke-width="5.15534"/>
<ellipse cx="202.827" cy="195.938" rx="2.13545" ry="3.20221" fill="black"/>
<ellipse cx="167.058" cy="195.938" rx="2.13545" ry="3.20221" fill="black"/>
</g>
<defs>
<filter id="filter0_d_141_2153" x="-14.1279" y="0" width="306.749" height="332.232" filterUnits="userSpaceOnUse" color-interpolation-filters="sRGB">
<feFlood flood-opacity="0" result="BackgroundImageFix"/>
<feColorMatrix in="SourceAlpha" type="matrix" values="0 0 0 0 0 0 0 0 0 0 0 0 0 0 0 0 0 0 127 0" result="hardAlpha"/>
<feOffset dx="-12" dy="17"/>
<feGaussianBlur stdDeviation="17.25"/>
<feComposite in2="hardAlpha" operator="out"/>
<feColorMatrix type="matrix" values="0 0 0 0 1 0 0 0 0 1 0 0 0 0 1 0 0 0 1 0"/>
<feBlend mode="normal" in2="BackgroundImageFix" result="effect1_dropShadow_141_2153"/>
<feBlend mode="normal" in="SourceGraphic" in2="effect1_dropShadow_141_2153" result="shape"/>
</filter>
</defs>
</svg>
