<svg width="270" height="415" viewBox="0 0 270 415" fill="none" xmlns="http://www.w3.org/2000/svg">
<rect x="1" y="1" width="268" height="413" rx="9" fill="#FFD966" stroke="#6750A4" stroke-width="2"/>
<path d="M27.6328 49.4219C26.1445 49.4219 24.9082 49.2871 23.9238 49.0176C22.9512 48.748 22.166 48.4141 21.5684 48.0156C20.9824 47.6055 20.5312 47.2012 20.2148 46.8027C20.1094 46.6504 20.0156 46.5039 19.9336 46.3633C19.8516 46.2227 19.793 46.0645 19.7578 45.8887C19.7109 45.6543 19.6641 45.3496 19.6172 44.9746C19.5703 44.5879 19.5645 44.1426 19.5996 43.6387C19.6113 43.4277 19.6523 43.2812 19.7227 43.1992C19.8047 43.1055 19.9395 43.0352 20.127 42.9883C20.4668 42.9062 20.9062 42.8359 21.4453 42.7773C21.9961 42.707 22.3887 42.6719 22.623 42.6719C22.8691 42.6719 23.0684 42.7188 23.2207 42.8125C23.373 42.9062 23.5547 43.0645 23.7656 43.2871C24 43.5332 24.4043 43.8496 24.9785 44.2363C25.5527 44.6113 26.4375 44.7988 27.6328 44.7988C28.7812 44.7988 29.6484 44.5586 30.2344 44.0781C30.8203 43.5977 31.1133 42.9297 31.1133 42.0742C31.1133 41.6172 30.9727 41.1895 30.6914 40.791C30.4219 40.3809 29.9238 39.9766 29.1973 39.5781C28.4707 39.168 27.4336 38.7402 26.0859 38.2949C23.8594 37.5449 22.2539 36.6133 21.2695 35.5C20.2852 34.3867 19.793 32.8398 19.793 30.8594C19.793 29.2188 20.1914 27.8477 20.9883 26.7461C21.7852 25.6445 22.8867 24.8125 24.293 24.25C25.6992 23.6875 27.3223 23.4062 29.1621 23.4062C30.5801 23.4062 31.752 23.5762 32.6777 23.916C33.6152 24.2441 34.3418 24.6191 34.8574 25.041C35.373 25.4512 35.707 25.7852 35.8594 26.043C35.9531 26.1953 36.0117 26.3125 36.0352 26.3945C36.0703 26.4648 36.0938 26.5645 36.1055 26.6934C36.1406 27.0566 36.1523 27.4609 36.1406 27.9062C36.1289 28.3516 36.0879 28.8555 36.0176 29.418C35.9824 29.6055 35.918 29.7344 35.8242 29.8047C35.7422 29.8633 35.6133 29.8926 35.4375 29.8926C34.3008 29.916 33.4219 29.8574 32.8008 29.7168C32.5547 29.6582 32.3906 29.5996 32.3086 29.541C32.2266 29.4824 32.1211 29.3887 31.9922 29.2598C31.8047 29.0371 31.5059 28.7793 31.0957 28.4863C30.6973 28.1816 30.0527 28.0293 29.1621 28.0293C27.9316 28.0293 27.0586 28.3105 26.543 28.873C26.0273 29.4238 25.7695 30.0449 25.7695 30.7363C25.7695 31.5566 26.1504 32.2012 26.9121 32.6699C27.6738 33.127 28.875 33.6484 30.5156 34.2344C31.8867 34.7148 33.0645 35.2363 34.0488 35.7988C35.0332 36.3613 35.7832 37.082 36.2988 37.9609C36.8262 38.8398 37.0898 40 37.0898 41.4414C37.0898 43.2344 36.6738 44.7227 35.8418 45.9062C35.0215 47.0898 33.8965 47.9746 32.4668 48.5605C31.0488 49.1348 29.4375 49.4219 27.6328 49.4219ZM48.1641 49.4395C44.25 49.4395 42.293 47.4062 42.293 43.3398V35.0957H40.3066C39.9551 35.0957 39.709 35.0254 39.5684 34.8848C39.4395 34.7324 39.375 34.4805 39.375 34.1289V31.9668C39.375 31.6152 39.4395 31.3691 39.5684 31.2285C39.709 31.0762 39.9551 31 40.3066 31H42.293V28.1699C42.293 27.8887 42.3516 27.6719 42.4688 27.5195C42.9609 26.875 43.6816 26.1777 44.6309 25.4277C44.7949 25.3105 44.9414 25.252 45.0703 25.252C45.2109 25.252 45.3516 25.3105 45.4922 25.4277C45.9961 25.8145 46.418 26.1777 46.7578 26.5176C47.1094 26.8574 47.4082 27.1914 47.6543 27.5195C47.7715 27.6719 47.8301 27.8887 47.8301 28.1699V31H50.9414C51.293 31 51.5332 31.0762 51.6621 31.2285C51.8027 31.3691 51.873 31.6152 51.873 31.9668V34.1289C51.873 34.4805 51.8027 34.7324 51.6621 34.8848C51.5332 35.0254 51.293 35.0957 50.9414 35.0957H47.8301V42.373C47.8301 44.248 48.5098 45.1855 49.8691 45.1855C50.0801 45.1855 50.2734 45.168 50.4492 45.1328C50.625 45.0859 50.7773 45.0391 50.9062 44.9922C51.1523 44.8984 51.3223 44.8633 51.416 44.8867C51.5215 44.9102 51.6152 45.0391 51.6973 45.2734L52.7168 47.998C52.8223 48.291 52.752 48.502 52.5059 48.6309C52.3301 48.7129 51.9023 48.8652 51.2227 49.0879C50.5547 49.3223 49.5352 49.4395 48.1641 49.4395ZM61.5938 49.4395C57.4219 49.4395 55.3359 46.9141 55.3359 41.8633L55.3184 32.9336C55.3184 32.6523 55.377 32.4355 55.4941 32.2832C55.9863 31.6387 56.707 30.9414 57.6562 30.1914C57.8203 30.0742 57.9668 30.0156 58.0957 30.0156C58.248 30.0156 58.3945 30.0742 58.5352 30.1914C59.0391 30.5781 59.4609 30.9414 59.8008 31.2812C60.1523 31.6211 60.4512 31.9551 60.6973 32.2832C60.8145 32.4355 60.873 32.6523 60.873 32.9336V41.3711C60.873 43.9141 61.8809 45.1855 63.8965 45.1855C64.8926 45.1855 65.6895 44.8398 66.2871 44.1484C66.8848 43.4453 67.1836 42.4961 67.1836 41.3008V32.9336C67.1836 32.6523 67.2422 32.4355 67.3594 32.2832C67.8516 31.6387 68.5723 30.9414 69.5215 30.1914C69.6855 30.0742 69.832 30.0156 69.9609 30.0156C70.1133 30.0156 70.2598 30.0742 70.4004 30.1914C70.9043 30.5781 71.3262 30.9414 71.666 31.2812C72.0176 31.6211 72.3164 31.9551 72.5625 32.2832C72.6797 32.4355 72.7383 32.6523 72.7383 32.9336V48.1914C72.7383 48.4141 72.6621 48.6074 72.5098 48.7715C72.3574 48.9238 72.1641 49 71.9297 49H69.293C69.1055 49 68.9355 48.9766 68.7832 48.9297C68.6426 48.8711 68.5078 48.7656 68.3789 48.6133L67.2891 47.207H67.166C66.9785 47.4766 66.6855 47.7871 66.2871 48.1387C65.9004 48.4902 65.332 48.7949 64.582 49.0527C63.8438 49.3105 62.8477 49.4395 61.5938 49.4395ZM83.8652 49.4395C82.3066 49.4395 80.9766 49.0586 79.875 48.2969C78.7852 47.5234 77.9531 46.4629 77.3789 45.1152C76.8164 43.7559 76.5352 42.1914 76.5352 40.4219C76.5352 38.0898 76.9453 36.2031 77.7656 34.7617C78.5977 33.3086 79.7637 32.2422 81.2637 31.5625C82.7754 30.8828 84.5566 30.543 86.6074 30.543C87.3105 30.543 87.8906 30.5781 88.3477 30.6484C88.8164 30.7188 89.1504 30.7832 89.3496 30.8418V24.2852C89.3496 24.0039 89.4082 23.7871 89.5254 23.6348C90.0176 22.9902 90.7383 22.293 91.6875 21.543C91.8516 21.4258 91.998 21.3672 92.127 21.3672C92.2793 21.3672 92.4258 21.4258 92.5664 21.543C93.0703 21.9297 93.4922 22.293 93.832 22.6328C94.1836 22.9727 94.4824 23.3066 94.7285 23.6348C94.8457 23.7871 94.9043 24.0039 94.9043 24.2852V48.1914C94.9043 48.4141 94.8281 48.6074 94.6758 48.7715C94.5234 48.9238 94.3301 49 94.0957 49H91.4766C91.2891 49 91.1191 48.9766 90.9668 48.9297C90.8262 48.8711 90.6914 48.7656 90.5625 48.6133L89.4727 47.207H89.3496C89.1973 47.4414 88.9219 47.7402 88.5234 48.1035C88.1367 48.4551 87.5684 48.7656 86.8184 49.0352C86.0801 49.3047 85.0957 49.4395 83.8652 49.4395ZM85.5703 44.9395C86.625 44.9395 87.4512 44.7402 88.0488 44.3418C88.6582 43.9434 89.0918 43.4395 89.3496 42.8301V35.4648C89.1621 35.3477 88.8516 35.207 88.418 35.043C87.9844 34.8789 87.375 34.7969 86.5898 34.7969C85.1367 34.7969 84.0469 35.2715 83.3203 36.2207C82.5938 37.1699 82.2305 38.4473 82.2305 40.0527C82.2305 41.7168 82.5352 42.9473 83.1445 43.7441C83.7539 44.541 84.5625 44.9395 85.5703 44.9395ZM100.213 57.4551C99.7793 57.4551 99.4512 57.4082 99.2285 57.3145C99.0059 57.2324 98.8184 57.127 98.666 56.998C98.3613 56.7051 98.0332 56.2949 97.6816 55.7676C97.5996 55.6387 97.5117 55.4863 97.418 55.3105C97.3242 55.1465 97.2773 55.0059 97.2773 54.8887C97.2773 54.7598 97.3066 54.6426 97.3652 54.5371C97.4238 54.4316 97.4941 54.332 97.5762 54.2383C97.7637 53.9922 97.9922 53.7344 98.2617 53.4648C98.5312 53.207 98.7598 53.002 98.9473 52.8496C99.0762 52.7441 99.1816 52.6738 99.2637 52.6387C99.3457 52.6152 99.416 52.6035 99.4746 52.6035C99.5332 52.6035 99.6211 52.6152 99.7383 52.6387C99.8555 52.6621 100.031 52.6738 100.266 52.6738C101.074 52.6738 101.918 52.4102 102.797 51.8828C103.676 51.3555 104.543 50.3652 105.398 48.9121C104.508 48.0918 103.629 47.0664 102.762 45.8359C101.906 44.5938 101.133 43.252 100.441 41.8105C99.75 40.3574 99.1934 38.9102 98.7715 37.4688C98.3613 36.0273 98.1562 34.6973 98.1562 33.4785C98.1562 33.2207 98.2207 33.0156 98.3496 32.8633C98.8887 32.1953 99.6562 31.498 100.652 30.7715C100.828 30.6543 100.986 30.5957 101.127 30.5957C101.279 30.5957 101.438 30.6543 101.602 30.7715C102.141 31.1582 102.592 31.5215 102.955 31.8613C103.33 32.2012 103.646 32.5352 103.904 32.8633C104.033 33.0156 104.098 33.2324 104.098 33.5137V33.4434C104.098 34.3691 104.209 35.3477 104.432 36.3789C104.654 37.4102 104.959 38.418 105.346 39.4023C105.732 40.375 106.166 41.2598 106.646 42.0566C107.127 42.8418 107.625 43.4688 108.141 43.9375H108.229C108.463 43.4922 108.721 42.8535 109.002 42.0215C109.295 41.1777 109.57 40.2461 109.828 39.2266C110.086 38.1953 110.297 37.1758 110.461 36.168C110.625 35.1484 110.707 34.2461 110.707 33.4609V33.5137C110.707 33.2324 110.766 33.0156 110.883 32.8633C111.152 32.5352 111.469 32.2012 111.832 31.8613C112.195 31.5215 112.635 31.1582 113.15 30.7715C113.314 30.6543 113.467 30.5957 113.607 30.5957C113.771 30.5957 113.924 30.6543 114.064 30.7715C114.592 31.1582 115.037 31.5215 115.4 31.8613C115.764 32.2012 116.074 32.5352 116.332 32.8633C116.449 33.0156 116.508 33.2266 116.508 33.4961C116.496 34.5625 116.291 35.957 115.893 37.6797C115.494 39.3906 114.914 41.248 114.152 43.252C113.391 45.2559 112.465 47.2188 111.375 49.1406C109.746 52.0352 107.988 54.1445 106.102 55.4688C104.215 56.793 102.252 57.4551 100.213 57.4551ZM116.508 33.4609V33.5137V33.4961C116.508 33.4844 116.508 33.4727 116.508 33.4609ZM98.1562 33.4609V33.4785V33.5137V33.4609ZM118.916 25.0938C118.916 24.9414 118.963 24.8066 119.057 24.6895C119.15 24.5723 119.273 24.4199 119.426 24.2324C119.754 23.8574 120.135 23.4648 120.568 23.0547C121.002 22.6328 121.441 22.2285 121.887 21.8418C122.168 21.6191 122.379 21.5078 122.52 21.5078C122.66 21.5078 122.877 21.6191 123.17 21.8418C124.119 22.6621 124.928 23.459 125.596 24.2324C125.748 24.4082 125.871 24.5605 125.965 24.6895C126.07 24.8066 126.123 24.9414 126.123 25.0938C126.123 25.2461 126.07 25.3809 125.965 25.498C125.871 25.6152 125.742 25.7734 125.578 25.9727C125.262 26.3359 124.893 26.7285 124.471 27.1504C124.049 27.5605 123.615 27.9531 123.17 28.3281C123.006 28.4688 122.877 28.5625 122.783 28.6094C122.689 28.6445 122.602 28.6621 122.52 28.6621C122.438 28.6621 122.35 28.6445 122.256 28.6094C122.174 28.5625 122.039 28.4688 121.852 28.3281C121.383 27.9531 120.943 27.5605 120.533 27.1504C120.123 26.7285 119.754 26.3242 119.426 25.9375C119.273 25.75 119.15 25.6035 119.057 25.498C118.963 25.3809 118.916 25.2461 118.916 25.0938ZM125.279 48.0684C125.279 48.4199 125.203 48.666 125.051 48.8066C124.91 48.9355 124.664 49 124.312 49H120.691C120.34 49 120.088 48.9355 119.936 48.8066C119.795 48.666 119.725 48.4199 119.725 48.0684V31.9316C119.725 31.5801 119.795 31.3398 119.936 31.2109C120.088 31.0703 120.34 31 120.691 31H124.312C124.664 31 124.91 31.0703 125.051 31.2109C125.203 31.3398 125.279 31.5801 125.279 31.9316V48.0684ZM147.463 37.8027V48.0684C147.463 48.4199 147.387 48.666 147.234 48.8066C147.094 48.9355 146.848 49 146.496 49H142.875C142.523 49 142.271 48.9355 142.119 48.8066C141.979 48.666 141.908 48.4199 141.908 48.0684V38.7168C141.908 37.4395 141.639 36.5078 141.1 35.9219C140.561 35.3359 139.828 35.043 138.902 35.043C137.977 35.043 137.262 35.2422 136.758 35.6406C136.266 36.0391 135.885 36.543 135.615 37.1523V48.0684C135.615 48.4199 135.539 48.666 135.387 48.8066C135.246 48.9355 135 49 134.648 49H131.027C130.676 49 130.424 48.9355 130.271 48.8066C130.131 48.666 130.061 48.4199 130.061 48.0684V33.3379C130.061 33.0566 130.119 32.8398 130.236 32.6875C130.482 32.3594 130.775 32.0254 131.115 31.6855C131.467 31.3457 131.895 30.9824 132.398 30.5957C132.551 30.4785 132.697 30.4199 132.838 30.4199C132.967 30.4199 133.113 30.4785 133.277 30.5957C133.77 30.9824 134.191 31.3516 134.543 31.7031C134.895 32.0547 135.205 32.418 135.475 32.793H135.562C135.762 32.5352 136.061 32.2363 136.459 31.8965C136.857 31.5449 137.414 31.2344 138.129 30.9648C138.855 30.6953 139.781 30.5605 140.906 30.5605C142.008 30.5605 143.057 30.7832 144.053 31.2285C145.049 31.6738 145.863 32.4238 146.496 33.4785C147.141 34.5332 147.463 35.9746 147.463 37.8027ZM169.611 32.6875V46.9434C169.611 50.3652 168.633 52.9727 166.676 54.7656C164.73 56.5586 162.059 57.4551 158.66 57.4551C157.254 57.4551 156.141 57.3496 155.32 57.1387C154.5 56.9395 153.879 56.7461 153.457 56.5586C153.188 56.4297 153.012 56.2949 152.93 56.1543C152.812 55.9668 152.678 55.6914 152.525 55.3281C152.385 54.9648 152.25 54.5664 152.121 54.1328C152.086 53.9688 152.08 53.8457 152.104 53.7637C152.15 53.6465 152.238 53.5234 152.367 53.3945C152.578 53.1836 152.877 52.9375 153.264 52.6562C153.662 52.375 153.967 52.1934 154.178 52.1113C154.4 52.0293 154.605 52.041 154.793 52.1465C155.098 52.3105 155.531 52.4922 156.094 52.6914C156.668 52.9023 157.471 53.0078 158.502 53.0078C160.143 53.0078 161.479 52.5859 162.51 51.7422C163.541 50.8984 164.057 49.5977 164.057 47.8398V47.207H163.986C163.729 47.5352 163.395 47.8691 162.984 48.209C162.574 48.5488 162.041 48.8359 161.385 49.0703C160.74 49.3047 159.908 49.4219 158.889 49.4219C157.119 49.4219 155.666 49.041 154.529 48.2793C153.404 47.5059 152.572 46.4453 152.033 45.0977C151.506 43.75 151.242 42.2148 151.242 40.4922C151.242 38.6055 151.553 36.9121 152.174 35.4121C152.795 33.9121 153.838 32.7285 155.303 31.8613C156.768 30.9824 158.771 30.543 161.314 30.543C162.838 30.543 164.115 30.6543 165.146 30.877C166.189 31.0996 167.062 31.375 167.766 31.7031C168.469 32.0312 169.084 32.3594 169.611 32.6875ZM161.121 34.7969C159.762 34.7969 158.725 35.2539 158.01 36.168C157.295 37.082 156.938 38.5 156.938 40.4219C156.938 43.4336 158.18 44.9395 160.664 44.9395C161.637 44.9395 162.381 44.7402 162.896 44.3418C163.412 43.9434 163.799 43.4395 164.057 42.8301V35.5703C163.799 35.3828 163.436 35.207 162.967 35.043C162.498 34.8789 161.883 34.7969 161.121 34.7969ZM191.426 49.4395C187.512 49.4395 185.555 47.4062 185.555 43.3398V35.0957H183.568C183.217 35.0957 182.971 35.0254 182.83 34.8848C182.701 34.7324 182.637 34.4805 182.637 34.1289V31.9668C182.637 31.6152 182.701 31.3691 182.83 31.2285C182.971 31.0762 183.217 31 183.568 31H185.555V28.1699C185.555 27.8887 185.613 27.6719 185.73 27.5195C186.223 26.875 186.943 26.1777 187.893 25.4277C188.057 25.3105 188.203 25.252 188.332 25.252C188.473 25.252 188.613 25.3105 188.754 25.4277C189.258 25.8145 189.68 26.1777 190.02 26.5176C190.371 26.8574 190.67 27.1914 190.916 27.5195C191.033 27.6719 191.092 27.8887 191.092 28.1699V31H194.203C194.555 31 194.795 31.0762 194.924 31.2285C195.064 31.3691 195.135 31.6152 195.135 31.9668V34.1289C195.135 34.4805 195.064 34.7324 194.924 34.8848C194.795 35.0254 194.555 35.0957 194.203 35.0957H191.092V42.373C191.092 44.248 191.771 45.1855 193.131 45.1855C193.342 45.1855 193.535 45.168 193.711 45.1328C193.887 45.0859 194.039 45.0391 194.168 44.9922C194.414 44.8984 194.584 44.8633 194.678 44.8867C194.783 44.9102 194.877 45.0391 194.959 45.2734L195.979 47.998C196.084 48.291 196.014 48.502 195.768 48.6309C195.592 48.7129 195.164 48.8652 194.484 49.0879C193.816 49.3223 192.797 49.4395 191.426 49.4395ZM198.123 25.0938C198.123 24.9414 198.17 24.8066 198.264 24.6895C198.357 24.5723 198.48 24.4199 198.633 24.2324C198.961 23.8574 199.342 23.4648 199.775 23.0547C200.209 22.6328 200.648 22.2285 201.094 21.8418C201.375 21.6191 201.586 21.5078 201.727 21.5078C201.867 21.5078 202.084 21.6191 202.377 21.8418C203.326 22.6621 204.135 23.459 204.803 24.2324C204.955 24.4082 205.078 24.5605 205.172 24.6895C205.277 24.8066 205.33 24.9414 205.33 25.0938C205.33 25.2461 205.277 25.3809 205.172 25.498C205.078 25.6152 204.949 25.7734 204.785 25.9727C204.469 26.3359 204.1 26.7285 203.678 27.1504C203.256 27.5605 202.822 27.9531 202.377 28.3281C202.213 28.4688 202.084 28.5625 201.99 28.6094C201.896 28.6445 201.809 28.6621 201.727 28.6621C201.645 28.6621 201.557 28.6445 201.463 28.6094C201.381 28.5625 201.246 28.4688 201.059 28.3281C200.59 27.9531 200.15 27.5605 199.74 27.1504C199.33 26.7285 198.961 26.3242 198.633 25.9375C198.48 25.75 198.357 25.6035 198.264 25.498C198.17 25.3809 198.123 25.2461 198.123 25.0938ZM204.486 48.0684C204.486 48.4199 204.41 48.666 204.258 48.8066C204.117 48.9355 203.871 49 203.52 49H199.898C199.547 49 199.295 48.9355 199.143 48.8066C199.002 48.666 198.932 48.4199 198.932 48.0684V31.9316C198.932 31.5801 199.002 31.3398 199.143 31.2109C199.295 31.0703 199.547 31 199.898 31H203.52C203.871 31 204.117 31.0703 204.258 31.2109C204.41 31.3398 204.486 31.5801 204.486 31.9316V48.0684ZM225.369 32.8457C225.803 32.3184 226.471 31.8086 227.373 31.3164C228.287 30.8125 229.57 30.5605 231.223 30.5605C233.566 30.5605 235.26 31.1641 236.303 32.3711C237.346 33.5781 237.867 35.3887 237.867 37.8027V48.0684C237.867 48.4199 237.791 48.666 237.639 48.8066C237.498 48.9355 237.252 49 236.9 49H233.279C232.928 49 232.676 48.9355 232.523 48.8066C232.383 48.666 232.312 48.4199 232.312 48.0684V38.7168C232.312 37.4043 232.072 36.4668 231.592 35.9043C231.111 35.3301 230.391 35.043 229.43 35.043C228.574 35.043 227.895 35.2363 227.391 35.623C226.898 35.998 226.547 36.5078 226.336 37.1523V48.0684C226.336 48.4199 226.26 48.666 226.107 48.8066C225.967 48.9355 225.721 49 225.369 49H221.748C221.396 49 221.145 48.9355 220.992 48.8066C220.852 48.666 220.781 48.4199 220.781 48.0684V38.7168C220.781 37.4395 220.518 36.5078 219.99 35.9219C219.463 35.3359 218.771 35.043 217.916 35.043C217.107 35.043 216.457 35.2422 215.965 35.6406C215.473 36.0391 215.092 36.543 214.822 37.1523V48.0684C214.822 48.4199 214.746 48.666 214.594 48.8066C214.453 48.9355 214.207 49 213.855 49H210.234C209.883 49 209.631 48.9355 209.479 48.8066C209.338 48.666 209.268 48.4199 209.268 48.0684V33.3379C209.268 33.0566 209.326 32.8398 209.443 32.6875C209.689 32.3594 209.982 32.0254 210.322 31.6855C210.674 31.3457 211.102 30.9824 211.605 30.5957C211.758 30.4785 211.904 30.4199 212.045 30.4199C212.174 30.4199 212.32 30.4785 212.484 30.5957C212.977 30.9824 213.398 31.3516 213.75 31.7031C214.102 32.0547 214.412 32.418 214.682 32.793H214.77C215.168 32.2891 215.789 31.791 216.633 31.2988C217.477 30.8066 218.684 30.5605 220.254 30.5605C221.754 30.5605 222.867 30.7891 223.594 31.2461C224.32 31.6914 224.912 32.2246 225.369 32.8457ZM251.455 49.4395C249.475 49.4395 247.752 49.123 246.287 48.4902C244.822 47.8457 243.686 46.8496 242.877 45.502C242.068 44.1543 241.664 42.4141 241.664 40.2812C241.664 37.082 242.484 34.6621 244.125 33.0215C245.766 31.3809 247.945 30.5605 250.664 30.5605C252.434 30.5605 253.928 30.877 255.146 31.5098C256.377 32.1426 257.309 33.0156 257.941 34.1289C258.586 35.2422 258.908 36.5137 258.908 37.9434C258.908 39.3379 258.551 40.3105 257.836 40.8613C257.121 41.4121 256.078 41.6875 254.707 41.6875H247.166C247.26 42.8945 247.699 43.8145 248.484 44.4473C249.281 45.0801 250.359 45.3965 251.719 45.3965C252.797 45.3965 253.658 45.2383 254.303 44.9219C254.959 44.5938 255.416 44.3359 255.674 44.1484C255.896 43.9844 256.148 43.9082 256.43 43.9199C256.652 43.9199 256.969 43.9668 257.379 44.0605C257.801 44.1426 258.217 44.3008 258.627 44.5352C258.92 44.6875 259.066 44.8984 259.066 45.168C259.066 45.3203 259.037 45.5371 258.979 45.8184C258.943 45.9824 258.885 46.2227 258.803 46.5391C258.721 46.8438 258.615 47.1309 258.486 47.4004C258.416 47.5293 258.305 47.6523 258.152 47.7695C257.918 47.9336 257.537 48.1504 257.01 48.4199C256.494 48.6895 255.785 48.9238 254.883 49.123C253.98 49.334 252.838 49.4395 251.455 49.4395ZM247.131 38.084H252.861C253.459 38.084 253.758 37.8086 253.758 37.2578C253.758 36.4258 253.494 35.7285 252.967 35.166C252.451 34.5918 251.672 34.3047 250.629 34.3047C249.492 34.3047 248.654 34.668 248.115 35.3945C247.588 36.1211 247.26 37.0176 247.131 38.084Z" fill="#0C4587"/>
<path d="M51.1543 184C49.9473 184 49.0273 183.848 48.3945 183.543C47.7734 183.238 47.3516 182.74 47.1289 182.049C46.918 181.357 46.8125 180.438 46.8125 179.289V163.504C46.8125 162.332 46.918 161.406 47.1289 160.727C47.3516 160.035 47.7734 159.543 48.3945 159.25C49.0273 158.945 49.9473 158.793 51.1543 158.793H55.9883C58.8008 158.793 60.9629 159.309 62.4746 160.34C63.9863 161.371 64.7422 162.824 64.7422 164.699C64.7422 165.625 64.5312 166.469 64.1094 167.23C63.6875 167.992 63.1309 168.643 62.4395 169.182C61.7598 169.721 61.0156 170.125 60.207 170.395V170.465C61.2383 170.605 62.1699 170.945 63.002 171.484C63.834 172.012 64.4961 172.703 64.9883 173.559C65.4922 174.402 65.7441 175.375 65.7441 176.477C65.7441 178.117 65.3457 179.5 64.5488 180.625C63.7637 181.738 62.6738 182.582 61.2793 183.156C59.8965 183.719 58.3027 184 56.498 184H51.1543ZM52.4902 177.619C52.4902 178.404 52.6309 178.967 52.9121 179.307C53.1934 179.646 53.7207 179.816 54.4941 179.816H55.8301C57.0137 179.816 57.9629 179.512 58.6777 178.902C59.4043 178.293 59.7676 177.461 59.7676 176.406C59.7676 175.398 59.416 174.607 58.7129 174.033C58.0098 173.459 57.1016 173.172 55.9883 173.172H56.0059C55.7246 173.172 55.5137 173.131 55.373 173.049C55.0684 172.85 54.752 172.621 54.4238 172.363C54.1074 172.094 53.7617 171.771 53.3867 171.396C53.2695 171.244 53.2109 171.133 53.2109 171.062C53.2109 170.969 53.2695 170.857 53.3867 170.729C53.7617 170.354 54.1074 170.031 54.4238 169.762C54.752 169.492 55.0684 169.264 55.373 169.076C55.5371 168.994 55.748 168.953 56.0059 168.953H55.9883C56.6797 168.953 57.3125 168.695 57.8867 168.18C58.4727 167.664 58.7656 166.855 58.7656 165.754C58.7656 164.641 58.4551 163.902 57.834 163.539C57.2129 163.164 56.416 162.977 55.4434 162.977H54.4941C53.7207 162.977 53.1934 163.141 52.9121 163.469C52.6309 163.797 52.4902 164.359 52.4902 165.156V177.619ZM75.0957 169.34H75.166C76.0449 166.902 77.627 165.684 79.9121 165.684C80.2051 165.684 80.4453 165.701 80.6328 165.736C80.8203 165.76 80.9492 165.783 81.0195 165.807C81.1953 165.865 81.2832 166 81.2832 166.211V170.447C81.2832 170.811 81.0723 170.91 80.6504 170.746C80.5098 170.688 80.3047 170.629 80.0352 170.57C79.7773 170.5 79.4141 170.465 78.9453 170.465C77.7383 170.465 76.7949 170.91 76.1152 171.801C75.4355 172.68 75.0957 173.881 75.0957 175.404V183.068C75.0957 183.42 75.0195 183.666 74.8672 183.807C74.7266 183.936 74.4805 184 74.1289 184H70.5078C70.1562 184 69.9043 183.936 69.752 183.807C69.6113 183.666 69.541 183.42 69.541 183.068V168.338C69.541 168.057 69.5996 167.84 69.7168 167.688C69.9629 167.359 70.2559 167.025 70.5957 166.686C70.9473 166.346 71.375 165.982 71.8789 165.596C71.9727 165.525 72.0664 165.479 72.1602 165.455C72.2539 165.432 72.3359 165.42 72.4062 165.42C72.5703 165.42 72.7344 165.479 72.8984 165.596C73.8711 166.357 74.5508 167.008 74.9375 167.547C75.043 167.688 75.0957 167.852 75.0957 168.039V169.34ZM92.7441 184.439C90.7637 184.439 89.041 184.123 87.5762 183.49C86.1113 182.846 84.9746 181.85 84.166 180.502C83.3574 179.154 82.9531 177.414 82.9531 175.281C82.9531 172.082 83.7734 169.662 85.4141 168.021C87.0547 166.381 89.2344 165.561 91.9531 165.561C93.7227 165.561 95.2168 165.877 96.4355 166.51C97.666 167.143 98.5977 168.016 99.2305 169.129C99.875 170.242 100.197 171.514 100.197 172.943C100.197 174.338 99.8398 175.311 99.125 175.861C98.4102 176.412 97.3672 176.688 95.9961 176.688H88.4551C88.5488 177.895 88.9883 178.814 89.7734 179.447C90.5703 180.08 91.6484 180.396 93.0078 180.396C94.0859 180.396 94.9473 180.238 95.5918 179.922C96.248 179.594 96.7051 179.336 96.9629 179.148C97.1855 178.984 97.4375 178.908 97.7188 178.92C97.9414 178.92 98.2578 178.967 98.668 179.061C99.0898 179.143 99.5059 179.301 99.916 179.535C100.209 179.688 100.355 179.898 100.355 180.168C100.355 180.32 100.326 180.537 100.268 180.818C100.232 180.982 100.174 181.223 100.092 181.539C100.01 181.844 99.9043 182.131 99.7754 182.4C99.7051 182.529 99.5938 182.652 99.4414 182.77C99.207 182.934 98.8262 183.15 98.2988 183.42C97.7832 183.689 97.0742 183.924 96.1719 184.123C95.2695 184.334 94.127 184.439 92.7441 184.439ZM88.4199 173.084H94.1504C94.748 173.084 95.0469 172.809 95.0469 172.258C95.0469 171.426 94.7832 170.729 94.2559 170.166C93.7402 169.592 92.9609 169.305 91.918 169.305C90.7812 169.305 89.9434 169.668 89.4043 170.395C88.877 171.121 88.5488 172.018 88.4199 173.084ZM108.723 184.439C107 184.439 105.629 183.959 104.609 182.998C103.602 182.025 103.098 180.689 103.098 178.99C103.098 178.111 103.256 177.297 103.572 176.547C103.9 175.785 104.463 175.117 105.26 174.543C106.068 173.957 107.193 173.488 108.635 173.137C110.088 172.785 111.939 172.58 114.189 172.521C114.189 171.455 113.92 170.688 113.381 170.219C112.854 169.75 112.057 169.516 110.99 169.516C110.029 169.516 109.244 169.68 108.635 170.008C108.025 170.336 107.645 170.559 107.492 170.676C107.328 170.816 107.129 170.869 106.895 170.834C106.578 170.787 106.238 170.705 105.875 170.588C105.523 170.471 105.143 170.336 104.732 170.184C104.674 170.16 104.609 170.125 104.539 170.078C104.469 170.02 104.428 169.938 104.416 169.832C104.416 169.773 104.422 169.703 104.434 169.621C104.445 169.527 104.475 169.363 104.521 169.129C104.568 168.895 104.639 168.607 104.732 168.268C104.826 167.916 104.914 167.646 104.996 167.459C105.102 167.26 105.277 167.072 105.523 166.896C105.723 166.732 106.326 166.469 107.334 166.105C108.342 165.742 109.801 165.561 111.711 165.561C116.973 165.561 119.604 168.121 119.604 173.242V183.191C119.604 183.414 119.539 183.607 119.41 183.771C119.293 183.924 119.088 184 118.795 184H116.158C115.971 184 115.801 183.977 115.648 183.93C115.508 183.871 115.373 183.766 115.244 183.613L114.154 182.207H114.031C113.492 182.992 112.766 183.561 111.852 183.912C110.949 184.264 109.906 184.439 108.723 184.439ZM110.656 180.361C111.734 180.361 112.549 180.086 113.1 179.535C113.65 178.984 114.002 178.416 114.154 177.83V175.879C112.525 175.879 111.301 176.008 110.48 176.266C109.672 176.512 109.133 176.84 108.863 177.25C108.594 177.648 108.459 178.082 108.459 178.551C108.459 179.23 108.67 179.705 109.092 179.975C109.514 180.232 110.035 180.361 110.656 180.361ZM129.729 183.068C129.729 183.42 129.652 183.666 129.5 183.807C129.359 183.936 129.113 184 128.762 184H125.141C124.789 184 124.537 183.936 124.385 183.807C124.244 183.666 124.174 183.42 124.174 183.068V159.285C124.174 159.004 124.232 158.787 124.35 158.635C124.842 157.99 125.562 157.293 126.512 156.543C126.676 156.426 126.822 156.367 126.951 156.367C127.104 156.367 127.25 156.426 127.391 156.543C127.895 156.93 128.316 157.293 128.656 157.633C129.008 157.973 129.307 158.307 129.553 158.635C129.67 158.787 129.729 159.004 129.729 159.285V173.084H129.939C131.721 173.084 132.928 172.768 133.561 172.135C134.205 171.49 134.527 170.6 134.527 169.463V168.514C134.527 168.232 134.586 168.016 134.703 167.863C135.195 167.219 135.916 166.521 136.865 165.771C137.029 165.654 137.176 165.596 137.305 165.596C137.457 165.596 137.604 165.654 137.744 165.771C138.248 166.158 138.67 166.521 139.01 166.861C139.361 167.201 139.66 167.535 139.906 167.863C140.023 168.016 140.082 168.232 140.082 168.514V169.463C140.082 170.131 139.947 170.869 139.678 171.678C139.42 172.486 138.945 173.201 138.254 173.822C137.562 174.443 136.578 174.807 135.301 174.912V175C136.285 175.434 137.135 176.008 137.85 176.723C138.564 177.438 139.162 178.205 139.643 179.025C140.123 179.834 140.492 180.613 140.75 181.363C141.02 182.102 141.195 182.729 141.277 183.244C141.359 183.748 141.189 184 140.768 184H136.145C135.746 184 135.518 183.76 135.459 183.279C135.377 182.729 135.195 182.084 134.914 181.346C134.645 180.596 134.275 179.863 133.807 179.148C133.35 178.434 132.793 177.842 132.137 177.373C131.492 176.893 130.76 176.652 129.939 176.652H129.729V183.068ZM161.633 184.439C157.719 184.439 155.762 182.406 155.762 178.34V170.096H153.775C153.424 170.096 153.178 170.025 153.037 169.885C152.908 169.732 152.844 169.48 152.844 169.129V166.967C152.844 166.615 152.908 166.369 153.037 166.229C153.178 166.076 153.424 166 153.775 166H155.762V163.17C155.762 162.889 155.82 162.672 155.938 162.52C156.43 161.875 157.15 161.178 158.1 160.428C158.264 160.311 158.41 160.252 158.539 160.252C158.68 160.252 158.82 160.311 158.961 160.428C159.465 160.814 159.887 161.178 160.227 161.518C160.578 161.857 160.877 162.191 161.123 162.52C161.24 162.672 161.299 162.889 161.299 163.17V166H164.41C164.762 166 165.002 166.076 165.131 166.229C165.271 166.369 165.342 166.615 165.342 166.967V169.129C165.342 169.48 165.271 169.732 165.131 169.885C165.002 170.025 164.762 170.096 164.41 170.096H161.299V177.373C161.299 179.248 161.979 180.186 163.338 180.186C163.549 180.186 163.742 180.168 163.918 180.133C164.094 180.086 164.246 180.039 164.375 179.992C164.621 179.898 164.791 179.863 164.885 179.887C164.99 179.91 165.084 180.039 165.166 180.273L166.186 182.998C166.291 183.291 166.221 183.502 165.975 183.631C165.799 183.713 165.371 183.865 164.691 184.088C164.023 184.322 163.004 184.439 161.633 184.439ZM168.33 160.094C168.33 159.941 168.377 159.807 168.471 159.689C168.564 159.572 168.688 159.42 168.84 159.232C169.168 158.857 169.549 158.465 169.982 158.055C170.416 157.633 170.855 157.229 171.301 156.842C171.582 156.619 171.793 156.508 171.934 156.508C172.074 156.508 172.291 156.619 172.584 156.842C173.533 157.662 174.342 158.459 175.01 159.232C175.162 159.408 175.285 159.561 175.379 159.689C175.484 159.807 175.537 159.941 175.537 160.094C175.537 160.246 175.484 160.381 175.379 160.498C175.285 160.615 175.156 160.773 174.992 160.973C174.676 161.336 174.307 161.729 173.885 162.15C173.463 162.561 173.029 162.953 172.584 163.328C172.42 163.469 172.291 163.562 172.197 163.609C172.104 163.645 172.016 163.662 171.934 163.662C171.852 163.662 171.764 163.645 171.67 163.609C171.588 163.562 171.453 163.469 171.266 163.328C170.797 162.953 170.357 162.561 169.947 162.15C169.537 161.729 169.168 161.324 168.84 160.938C168.688 160.75 168.564 160.604 168.471 160.498C168.377 160.381 168.33 160.246 168.33 160.094ZM174.693 183.068C174.693 183.42 174.617 183.666 174.465 183.807C174.324 183.936 174.078 184 173.727 184H170.105C169.754 184 169.502 183.936 169.35 183.807C169.209 183.666 169.139 183.42 169.139 183.068V166.932C169.139 166.58 169.209 166.34 169.35 166.211C169.502 166.07 169.754 166 170.105 166H173.727C174.078 166 174.324 166.07 174.465 166.211C174.617 166.34 174.693 166.58 174.693 166.932V183.068ZM195.576 167.846C196.01 167.318 196.678 166.809 197.58 166.316C198.494 165.812 199.777 165.561 201.43 165.561C203.773 165.561 205.467 166.164 206.51 167.371C207.553 168.578 208.074 170.389 208.074 172.803V183.068C208.074 183.42 207.998 183.666 207.846 183.807C207.705 183.936 207.459 184 207.107 184H203.486C203.135 184 202.883 183.936 202.73 183.807C202.59 183.666 202.52 183.42 202.52 183.068V173.717C202.52 172.404 202.279 171.467 201.799 170.904C201.318 170.33 200.598 170.043 199.637 170.043C198.781 170.043 198.102 170.236 197.598 170.623C197.105 170.998 196.754 171.508 196.543 172.152V183.068C196.543 183.42 196.467 183.666 196.314 183.807C196.174 183.936 195.928 184 195.576 184H191.955C191.604 184 191.352 183.936 191.199 183.807C191.059 183.666 190.988 183.42 190.988 183.068V173.717C190.988 172.439 190.725 171.508 190.197 170.922C189.67 170.336 188.979 170.043 188.123 170.043C187.314 170.043 186.664 170.242 186.172 170.641C185.68 171.039 185.299 171.543 185.029 172.152V183.068C185.029 183.42 184.953 183.666 184.801 183.807C184.66 183.936 184.414 184 184.062 184H180.441C180.09 184 179.838 183.936 179.686 183.807C179.545 183.666 179.475 183.42 179.475 183.068V168.338C179.475 168.057 179.533 167.84 179.65 167.688C179.896 167.359 180.189 167.025 180.529 166.686C180.881 166.346 181.309 165.982 181.812 165.596C181.965 165.479 182.111 165.42 182.252 165.42C182.381 165.42 182.527 165.479 182.691 165.596C183.184 165.982 183.605 166.352 183.957 166.703C184.309 167.055 184.619 167.418 184.889 167.793H184.977C185.375 167.289 185.996 166.791 186.84 166.299C187.684 165.807 188.891 165.561 190.461 165.561C191.961 165.561 193.074 165.789 193.801 166.246C194.527 166.691 195.119 167.225 195.576 167.846ZM221.662 184.439C219.682 184.439 217.959 184.123 216.494 183.49C215.029 182.846 213.893 181.85 213.084 180.502C212.275 179.154 211.871 177.414 211.871 175.281C211.871 172.082 212.691 169.662 214.332 168.021C215.973 166.381 218.152 165.561 220.871 165.561C222.641 165.561 224.135 165.877 225.354 166.51C226.584 167.143 227.516 168.016 228.148 169.129C228.793 170.242 229.115 171.514 229.115 172.943C229.115 174.338 228.758 175.311 228.043 175.861C227.328 176.412 226.285 176.688 224.914 176.688H217.373C217.467 177.895 217.906 178.814 218.691 179.447C219.488 180.08 220.566 180.396 221.926 180.396C223.004 180.396 223.865 180.238 224.51 179.922C225.166 179.594 225.623 179.336 225.881 179.148C226.104 178.984 226.355 178.908 226.637 178.92C226.859 178.92 227.176 178.967 227.586 179.061C228.008 179.143 228.424 179.301 228.834 179.535C229.127 179.688 229.273 179.898 229.273 180.168C229.273 180.32 229.244 180.537 229.186 180.818C229.15 180.982 229.092 181.223 229.01 181.539C228.928 181.844 228.822 182.131 228.693 182.4C228.623 182.529 228.512 182.652 228.359 182.77C228.125 182.934 227.744 183.15 227.217 183.42C226.701 183.689 225.992 183.924 225.09 184.123C224.188 184.334 223.045 184.439 221.662 184.439ZM217.338 173.084H223.068C223.666 173.084 223.965 172.809 223.965 172.258C223.965 171.426 223.701 170.729 223.174 170.166C222.658 169.592 221.879 169.305 220.836 169.305C219.699 169.305 218.861 169.668 218.322 170.395C217.795 171.121 217.467 172.018 217.338 173.084Z" fill="#0C4587"/>
<path d="M68.6328 318.422C67.1445 318.422 65.9082 318.287 64.9238 318.018C63.9512 317.748 63.166 317.414 62.5684 317.016C61.9824 316.605 61.5312 316.201 61.2148 315.803C61.1094 315.65 61.0156 315.504 60.9336 315.363C60.8516 315.223 60.793 315.064 60.7578 314.889C60.7109 314.654 60.6641 314.35 60.6172 313.975C60.5703 313.588 60.5645 313.143 60.5996 312.639C60.6113 312.428 60.6523 312.281 60.7227 312.199C60.8047 312.105 60.9395 312.035 61.127 311.988C61.4668 311.906 61.9062 311.836 62.4453 311.777C62.9961 311.707 63.3887 311.672 63.623 311.672C63.8691 311.672 64.0684 311.719 64.2207 311.812C64.373 311.906 64.5547 312.064 64.7656 312.287C65 312.533 65.4043 312.85 65.9785 313.236C66.5527 313.611 67.4375 313.799 68.6328 313.799C69.7812 313.799 70.6484 313.559 71.2344 313.078C71.8203 312.598 72.1133 311.93 72.1133 311.074C72.1133 310.617 71.9727 310.189 71.6914 309.791C71.4219 309.381 70.9238 308.977 70.1973 308.578C69.4707 308.168 68.4336 307.74 67.0859 307.295C64.8594 306.545 63.2539 305.613 62.2695 304.5C61.2852 303.387 60.793 301.84 60.793 299.859C60.793 298.219 61.1914 296.848 61.9883 295.746C62.7852 294.645 63.8867 293.812 65.293 293.25C66.6992 292.688 68.3223 292.406 70.1621 292.406C71.5801 292.406 72.752 292.576 73.6777 292.916C74.6152 293.244 75.3418 293.619 75.8574 294.041C76.373 294.451 76.707 294.785 76.8594 295.043C76.9531 295.195 77.0117 295.312 77.0352 295.395C77.0703 295.465 77.0938 295.564 77.1055 295.693C77.1406 296.057 77.1523 296.461 77.1406 296.906C77.1289 297.352 77.0879 297.855 77.0176 298.418C76.9824 298.605 76.918 298.734 76.8242 298.805C76.7422 298.863 76.6133 298.893 76.4375 298.893C75.3008 298.916 74.4219 298.857 73.8008 298.717C73.5547 298.658 73.3906 298.6 73.3086 298.541C73.2266 298.482 73.1211 298.389 72.9922 298.26C72.8047 298.037 72.5059 297.779 72.0957 297.486C71.6973 297.182 71.0527 297.029 70.1621 297.029C68.9316 297.029 68.0586 297.311 67.543 297.873C67.0273 298.424 66.7695 299.045 66.7695 299.736C66.7695 300.557 67.1504 301.201 67.9121 301.67C68.6738 302.127 69.875 302.648 71.5156 303.234C72.8867 303.715 74.0645 304.236 75.0488 304.799C76.0332 305.361 76.7832 306.082 77.2988 306.961C77.8262 307.84 78.0898 309 78.0898 310.441C78.0898 312.234 77.6738 313.723 76.8418 314.906C76.0215 316.09 74.8965 316.975 73.4668 317.561C72.0488 318.135 70.4375 318.422 68.6328 318.422ZM90.6934 318.439C88.7129 318.439 86.9902 318.123 85.5254 317.49C84.0605 316.846 82.9238 315.85 82.1152 314.502C81.3066 313.154 80.9023 311.414 80.9023 309.281C80.9023 306.082 81.7227 303.662 83.3633 302.021C85.0039 300.381 87.1836 299.561 89.9023 299.561C91.6719 299.561 93.166 299.877 94.3848 300.51C95.6152 301.143 96.5469 302.016 97.1797 303.129C97.8242 304.242 98.1465 305.514 98.1465 306.943C98.1465 308.338 97.7891 309.311 97.0742 309.861C96.3594 310.412 95.3164 310.688 93.9453 310.688H86.4043C86.498 311.895 86.9375 312.814 87.7227 313.447C88.5195 314.08 89.5977 314.396 90.957 314.396C92.0352 314.396 92.8965 314.238 93.541 313.922C94.1973 313.594 94.6543 313.336 94.9121 313.148C95.1348 312.984 95.3867 312.908 95.668 312.92C95.8906 312.92 96.207 312.967 96.6172 313.061C97.0391 313.143 97.4551 313.301 97.8652 313.535C98.1582 313.688 98.3047 313.898 98.3047 314.168C98.3047 314.32 98.2754 314.537 98.2168 314.818C98.1816 314.982 98.123 315.223 98.041 315.539C97.959 315.844 97.8535 316.131 97.7246 316.4C97.6543 316.529 97.543 316.652 97.3906 316.77C97.1562 316.934 96.7754 317.15 96.248 317.42C95.7324 317.689 95.0234 317.924 94.1211 318.123C93.2188 318.334 92.0762 318.439 90.6934 318.439ZM86.3691 307.084H92.0996C92.6973 307.084 92.9961 306.809 92.9961 306.258C92.9961 305.426 92.7324 304.729 92.2051 304.166C91.6895 303.592 90.9102 303.305 89.8672 303.305C88.7305 303.305 87.8926 303.668 87.3535 304.395C86.8262 305.121 86.498 306.018 86.3691 307.084ZM107.023 318.439C105.77 318.439 104.727 318.334 103.895 318.123C103.074 317.912 102.412 317.66 101.908 317.367C101.416 317.062 101.029 316.787 100.748 316.541C100.537 316.342 100.514 316.119 100.678 315.873L102.471 313.219C102.729 312.844 103.021 312.82 103.35 313.148C103.689 313.477 104.146 313.799 104.721 314.115C105.307 314.42 106.033 314.572 106.9 314.572C107.674 314.572 108.307 314.443 108.799 314.186C109.303 313.916 109.555 313.529 109.555 313.025C109.555 312.674 109.443 312.387 109.221 312.164C108.998 311.941 108.605 311.713 108.043 311.479C107.48 311.244 106.695 310.945 105.688 310.582C104.199 310.043 103.074 309.393 102.312 308.631C101.551 307.869 101.17 306.756 101.17 305.291C101.17 303.943 101.539 302.848 102.277 302.004C103.027 301.16 103.982 300.545 105.143 300.158C106.314 299.76 107.533 299.561 108.799 299.561C110.404 299.561 111.529 299.713 112.174 300.018C112.83 300.311 113.252 300.539 113.439 300.703C113.615 300.855 113.738 301.031 113.809 301.23C113.961 301.688 114.078 302.291 114.16 303.041C114.207 303.475 114.096 303.762 113.826 303.902C113.686 303.984 113.463 304.072 113.158 304.166C112.854 304.26 112.549 304.342 112.244 304.412C111.939 304.482 111.711 304.518 111.559 304.518C111.512 304.518 111.459 304.506 111.4 304.482C111.354 304.447 111.266 304.371 111.137 304.254C110.984 304.102 110.721 303.926 110.346 303.727C109.982 303.527 109.479 303.428 108.834 303.428C108.201 303.428 107.668 303.533 107.234 303.744C106.812 303.943 106.602 304.301 106.602 304.816C106.602 305.379 106.871 305.801 107.41 306.082C107.961 306.363 108.863 306.727 110.117 307.172C111.102 307.512 111.957 307.887 112.684 308.297C113.422 308.695 113.99 309.223 114.389 309.879C114.787 310.523 114.986 311.396 114.986 312.498C114.986 313.928 114.594 315.082 113.809 315.961C113.035 316.828 112.039 317.461 110.82 317.859C109.613 318.246 108.348 318.439 107.023 318.439ZM123.441 318.439C122.188 318.439 121.145 318.334 120.312 318.123C119.492 317.912 118.83 317.66 118.326 317.367C117.834 317.062 117.447 316.787 117.166 316.541C116.955 316.342 116.932 316.119 117.096 315.873L118.889 313.219C119.146 312.844 119.439 312.82 119.768 313.148C120.107 313.477 120.564 313.799 121.139 314.115C121.725 314.42 122.451 314.572 123.318 314.572C124.092 314.572 124.725 314.443 125.217 314.186C125.721 313.916 125.973 313.529 125.973 313.025C125.973 312.674 125.861 312.387 125.639 312.164C125.416 311.941 125.023 311.713 124.461 311.479C123.898 311.244 123.113 310.945 122.105 310.582C120.617 310.043 119.492 309.393 118.73 308.631C117.969 307.869 117.588 306.756 117.588 305.291C117.588 303.943 117.957 302.848 118.695 302.004C119.445 301.16 120.4 300.545 121.561 300.158C122.732 299.76 123.951 299.561 125.217 299.561C126.822 299.561 127.947 299.713 128.592 300.018C129.248 300.311 129.67 300.539 129.857 300.703C130.033 300.855 130.156 301.031 130.227 301.23C130.379 301.688 130.496 302.291 130.578 303.041C130.625 303.475 130.514 303.762 130.244 303.902C130.104 303.984 129.881 304.072 129.576 304.166C129.271 304.26 128.967 304.342 128.662 304.412C128.357 304.482 128.129 304.518 127.977 304.518C127.93 304.518 127.877 304.506 127.818 304.482C127.771 304.447 127.684 304.371 127.555 304.254C127.402 304.102 127.139 303.926 126.764 303.727C126.4 303.527 125.896 303.428 125.252 303.428C124.619 303.428 124.086 303.533 123.652 303.744C123.23 303.943 123.02 304.301 123.02 304.816C123.02 305.379 123.289 305.801 123.828 306.082C124.379 306.363 125.281 306.727 126.535 307.172C127.52 307.512 128.375 307.887 129.102 308.297C129.84 308.695 130.408 309.223 130.807 309.879C131.205 310.523 131.404 311.396 131.404 312.498C131.404 313.928 131.012 315.082 130.227 315.961C129.453 316.828 128.457 317.461 127.238 317.859C126.031 318.246 124.766 318.439 123.441 318.439ZM134.041 294.094C134.041 293.941 134.088 293.807 134.182 293.689C134.275 293.572 134.398 293.42 134.551 293.232C134.879 292.857 135.26 292.465 135.693 292.055C136.127 291.633 136.566 291.229 137.012 290.842C137.293 290.619 137.504 290.508 137.645 290.508C137.785 290.508 138.002 290.619 138.295 290.842C139.244 291.662 140.053 292.459 140.721 293.232C140.873 293.408 140.996 293.561 141.09 293.689C141.195 293.807 141.248 293.941 141.248 294.094C141.248 294.246 141.195 294.381 141.09 294.498C140.996 294.615 140.867 294.773 140.703 294.973C140.387 295.336 140.018 295.729 139.596 296.15C139.174 296.561 138.74 296.953 138.295 297.328C138.131 297.469 138.002 297.562 137.908 297.609C137.814 297.645 137.727 297.662 137.645 297.662C137.562 297.662 137.475 297.645 137.381 297.609C137.299 297.562 137.164 297.469 136.977 297.328C136.508 296.953 136.068 296.561 135.658 296.15C135.248 295.729 134.879 295.324 134.551 294.938C134.398 294.75 134.275 294.604 134.182 294.498C134.088 294.381 134.041 294.246 134.041 294.094ZM140.404 317.068C140.404 317.42 140.328 317.666 140.176 317.807C140.035 317.936 139.789 318 139.438 318H135.816C135.465 318 135.213 317.936 135.061 317.807C134.92 317.666 134.85 317.42 134.85 317.068V300.932C134.85 300.58 134.92 300.34 135.061 300.211C135.213 300.07 135.465 300 135.816 300H139.438C139.789 300 140.035 300.07 140.176 300.211C140.328 300.34 140.404 300.58 140.404 300.932V317.068ZM153.816 318.439C150.863 318.439 148.525 317.654 146.803 316.084C145.08 314.514 144.219 312.176 144.219 309.07C144.219 305.883 145.109 303.504 146.891 301.934C148.684 300.352 151.074 299.561 154.062 299.561C156.945 299.561 159.254 300.34 160.988 301.898C162.723 303.445 163.59 305.73 163.59 308.754C163.59 311.906 162.723 314.309 160.988 315.961C159.254 317.613 156.863 318.439 153.816 318.439ZM153.992 314.186C155.281 314.186 156.254 313.787 156.91 312.99C157.566 312.182 157.895 310.805 157.895 308.859C157.895 307.008 157.561 305.707 156.893 304.957C156.236 304.195 155.258 303.814 153.957 303.814C152.703 303.814 151.713 304.225 150.986 305.045C150.271 305.854 149.914 307.172 149.914 309C149.914 310.91 150.254 312.252 150.934 313.025C151.625 313.799 152.645 314.186 153.992 314.186ZM184.771 306.803V317.068C184.771 317.42 184.695 317.666 184.543 317.807C184.402 317.936 184.156 318 183.805 318H180.184C179.832 318 179.58 317.936 179.428 317.807C179.287 317.666 179.217 317.42 179.217 317.068V307.717C179.217 306.439 178.947 305.508 178.408 304.922C177.869 304.336 177.137 304.043 176.211 304.043C175.285 304.043 174.57 304.242 174.066 304.641C173.574 305.039 173.193 305.543 172.924 306.152V317.068C172.924 317.42 172.848 317.666 172.695 317.807C172.555 317.936 172.309 318 171.957 318H168.336C167.984 318 167.732 317.936 167.58 317.807C167.439 317.666 167.369 317.42 167.369 317.068V302.338C167.369 302.057 167.428 301.84 167.545 301.688C167.791 301.359 168.084 301.025 168.424 300.686C168.775 300.346 169.203 299.982 169.707 299.596C169.859 299.479 170.006 299.42 170.146 299.42C170.275 299.42 170.422 299.479 170.586 299.596C171.078 299.982 171.5 300.352 171.852 300.703C172.203 301.055 172.514 301.418 172.783 301.793H172.871C173.07 301.535 173.369 301.236 173.768 300.896C174.166 300.545 174.723 300.234 175.438 299.965C176.164 299.695 177.09 299.561 178.215 299.561C179.316 299.561 180.365 299.783 181.361 300.229C182.357 300.674 183.172 301.424 183.805 302.479C184.449 303.533 184.771 304.975 184.771 306.803ZM194.527 318.439C193.273 318.439 192.23 318.334 191.398 318.123C190.578 317.912 189.916 317.66 189.412 317.367C188.92 317.062 188.533 316.787 188.252 316.541C188.041 316.342 188.018 316.119 188.182 315.873L189.975 313.219C190.232 312.844 190.525 312.82 190.854 313.148C191.193 313.477 191.65 313.799 192.225 314.115C192.811 314.42 193.537 314.572 194.404 314.572C195.178 314.572 195.811 314.443 196.303 314.186C196.807 313.916 197.059 313.529 197.059 313.025C197.059 312.674 196.947 312.387 196.725 312.164C196.502 311.941 196.109 311.713 195.547 311.479C194.984 311.244 194.199 310.945 193.191 310.582C191.703 310.043 190.578 309.393 189.816 308.631C189.055 307.869 188.674 306.756 188.674 305.291C188.674 303.943 189.043 302.848 189.781 302.004C190.531 301.16 191.486 300.545 192.646 300.158C193.818 299.76 195.037 299.561 196.303 299.561C197.908 299.561 199.033 299.713 199.678 300.018C200.334 300.311 200.756 300.539 200.943 300.703C201.119 300.855 201.242 301.031 201.312 301.23C201.465 301.688 201.582 302.291 201.664 303.041C201.711 303.475 201.6 303.762 201.33 303.902C201.189 303.984 200.967 304.072 200.662 304.166C200.357 304.26 200.053 304.342 199.748 304.412C199.443 304.482 199.215 304.518 199.062 304.518C199.016 304.518 198.963 304.506 198.904 304.482C198.857 304.447 198.77 304.371 198.641 304.254C198.488 304.102 198.225 303.926 197.85 303.727C197.486 303.527 196.982 303.428 196.338 303.428C195.705 303.428 195.172 303.533 194.738 303.744C194.316 303.943 194.105 304.301 194.105 304.816C194.105 305.379 194.375 305.801 194.914 306.082C195.465 306.363 196.367 306.727 197.621 307.172C198.605 307.512 199.461 307.887 200.188 308.297C200.926 308.695 201.494 309.223 201.893 309.879C202.291 310.523 202.49 311.396 202.49 312.498C202.49 313.928 202.098 315.082 201.312 315.961C200.539 316.828 199.543 317.461 198.324 317.859C197.117 318.246 195.852 318.439 194.527 318.439Z" fill="#0C4587"/>
<rect x="27" y="208" width="226" height="59" rx="20" fill="#1E90FF"/>
<rect x="35.3706" y="213" width="42.2121" height="48.2078" rx="10" fill="white"/>
<rect x="86.6387" y="213" width="42.2121" height="48.2078" rx="10" fill="white"/>
<rect x="149.417" y="213" width="42.2121" height="48.2078" rx="10" fill="white"/>
<rect x="200.685" y="213" width="42.2121" height="48.2078" rx="10" fill="white"/>
<path d="M139.729 250.205C139.098 250.205 138.557 249.979 138.105 249.527C137.653 249.075 137.428 248.534 137.428 247.903C137.428 247.273 137.653 246.732 138.105 246.28C138.557 245.828 139.098 245.602 139.729 245.602C140.359 245.602 140.901 245.828 141.352 246.28C141.804 246.732 142.03 247.273 142.03 247.903C142.03 248.321 141.923 248.705 141.71 249.054C141.506 249.403 141.229 249.685 140.879 249.898C140.538 250.102 140.155 250.205 139.729 250.205ZM139.729 235.631C139.098 235.631 138.557 235.405 138.105 234.953C137.653 234.501 137.428 233.96 137.428 233.33C137.428 232.699 137.653 232.158 138.105 231.706C138.557 231.254 139.098 231.028 139.729 231.028C140.359 231.028 140.901 231.254 141.352 231.706C141.804 232.158 142.03 232.699 142.03 233.33C142.03 233.747 141.923 234.131 141.71 234.48C141.506 234.83 141.229 235.111 140.879 235.324C140.538 235.528 140.155 235.631 139.729 235.631Z" fill="white"/>
<rect x="27" y="68" width="226" height="59" rx="20" fill="#1E90FF"/>
<rect x="35.3706" y="73" width="42.2121" height="48.2078" rx="10" fill="white"/>
<rect x="86.6387" y="73" width="42.2121" height="48.2078" rx="10" fill="white"/>
<rect x="149.417" y="73" width="42.2121" height="48.2078" rx="10" fill="white"/>
<rect x="200.685" y="73" width="42.2121" height="48.2078" rx="10" fill="white"/>
<path d="M139.729 110.205C139.098 110.205 138.557 109.979 138.105 109.527C137.653 109.075 137.428 108.534 137.428 107.903C137.428 107.273 137.653 106.732 138.105 106.28C138.557 105.828 139.098 105.602 139.729 105.602C140.359 105.602 140.901 105.828 141.352 106.28C141.804 106.732 142.03 107.273 142.03 107.903C142.03 108.321 141.923 108.705 141.71 109.054C141.506 109.403 141.229 109.685 140.879 109.898C140.538 110.102 140.155 110.205 139.729 110.205ZM139.729 95.6307C139.098 95.6307 138.557 95.4048 138.105 94.9531C137.653 94.5014 137.428 93.9602 137.428 93.3295C137.428 92.6989 137.653 92.1577 138.105 91.706C138.557 91.2543 139.098 91.0284 139.729 91.0284C140.359 91.0284 140.901 91.2543 141.352 91.706C141.804 92.1577 142.03 92.6989 142.03 93.3295C142.03 93.7472 141.923 94.1307 141.71 94.4801C141.506 94.8295 141.229 95.1108 140.879 95.3239C140.538 95.5284 140.155 95.6307 139.729 95.6307Z" fill="white"/>
<path d="M108 351C108 345.477 112.477 341 118 341H153C158.523 341 163 345.477 163 351V390C163 395.523 158.523 400 153 400H118C112.477 400 108 395.523 108 390V351Z" fill="#1E90FF"/>
<rect x="115" y="347" width="40.3443" height="48.2078" rx="10" fill="white"/>
</svg>
