<svg width="293" height="324" viewBox="0 0 293 324" fill="none" xmlns="http://www.w3.org/2000/svg">
<g filter="url(#filter0_d_141_1848)">
<path d="M166.863 97.38C166.863 49.78 204.141 49.78 229.221 49.78H269.59V75.78H229.221C209.466 75.78 192.116 75.78 192.116 97.38H166.863Z" fill="#6D6D6D" stroke="black" stroke-width="0.8"/>
<path d="M165.25 92.98H198.301C200.842 92.98 202.901 95.0395 202.901 97.58C202.901 100.12 200.842 102.18 198.301 102.18H165.25C162.71 102.18 160.65 100.12 160.65 97.58C160.65 95.0395 162.71 92.98 165.25 92.98Z" fill="#6D6D6D" stroke="black" stroke-width="0.8"/>
<rect x="215.897" y="28.7002" width="12.488" height="20.72" fill="#6D6D6D" stroke="black" stroke-width="0.56"/>
<path d="M222.142 25.2609C202.16 16.2788 186.332 14.3409 186.332 25.2609C186.332 36.1809 202.715 35.4809 222.142 25.2609Z" fill="#6D6D6D" stroke="black" stroke-width="0.56"/>
<path d="M221.997 25.2609C241.979 16.2788 257.807 14.3409 257.807 25.2609C257.807 36.1809 241.424 35.4809 221.997 25.2609Z" fill="#6D6D6D" stroke="black" stroke-width="0.56"/>
<path d="M222.142 18.9004C225.018 18.9004 227.61 19.6563 229.474 20.8643C231.34 22.074 232.445 23.7127 232.445 25.4805C232.445 27.2481 231.34 28.8861 229.474 30.0957C227.61 31.3036 225.018 32.0605 222.142 32.0605C219.265 32.0605 216.674 31.3036 214.811 30.0957C212.944 28.8861 211.839 27.2481 211.839 25.4805C211.839 23.7126 212.944 22.074 214.811 20.8643C216.674 19.6564 219.265 18.9005 222.142 18.9004Z" fill="#6D6D6D" stroke="black" stroke-width="0.56"/>
<path d="M207.043 59.78C207.043 66.82 218.31 67.3 218.31 59.78M225.434 59.78C225.434 66.82 236.701 67.3 236.701 59.78" stroke="black" stroke-width="0.64"/>
<path d="M221.543 65.8604C222.358 65.8604 223.082 66.079 223.592 66.416C224.105 66.7549 224.371 67.1874 224.371 67.6201C224.371 68.0528 224.105 68.4854 223.592 68.8242C223.082 69.1612 222.358 69.3798 221.543 69.3799C220.728 69.3799 220.004 69.1613 219.493 68.8242C218.98 68.4854 218.715 68.0528 218.715 67.6201C218.715 67.1874 218.98 66.7549 219.493 66.416C220.004 66.0789 220.728 65.8604 221.543 65.8604Z" stroke="black" stroke-width="0.64"/>
<path d="M166.863 97.38C166.863 49.78 204.141 49.78 229.221 49.78H269.59V75.78H229.221C209.466 75.78 192.116 75.78 192.116 97.38H166.863Z" fill="#6D6D6D" stroke="black" stroke-width="0.8"/>
<path d="M165.25 92.98H198.301C200.842 92.98 202.901 95.0395 202.901 97.58C202.901 100.12 200.842 102.18 198.301 102.18H165.25C162.71 102.18 160.65 100.12 160.65 97.58C160.65 95.0395 162.71 92.98 165.25 92.98Z" fill="#6D6D6D" stroke="black" stroke-width="0.8"/>
<rect x="215.897" y="28.7002" width="12.488" height="20.72" fill="#6D6D6D" stroke="black" stroke-width="0.56"/>
<path d="M222.142 25.2609C202.16 16.2788 186.332 14.3409 186.332 25.2609C186.332 36.1809 202.715 35.4809 222.142 25.2609Z" fill="#6D6D6D" stroke="black" stroke-width="0.56"/>
<path d="M221.997 25.2609C241.979 16.2788 257.807 14.3409 257.807 25.2609C257.807 36.1809 241.424 35.4809 221.997 25.2609Z" fill="#6D6D6D" stroke="black" stroke-width="0.56"/>
<path d="M222.142 18.9004C225.018 18.9004 227.61 19.6563 229.474 20.8643C231.34 22.074 232.445 23.7127 232.445 25.4805C232.445 27.2481 231.34 28.8861 229.474 30.0957C227.61 31.3036 225.018 32.0605 222.142 32.0605C219.265 32.0605 216.674 31.3036 214.811 30.0957C212.944 28.8861 211.839 27.2481 211.839 25.4805C211.839 23.7126 212.944 22.074 214.811 20.8643C216.674 19.6564 219.265 18.9005 222.142 18.9004Z" fill="#6D6D6D" stroke="black" stroke-width="0.56"/>
<path d="M207.043 59.78C207.043 66.82 218.31 67.3 218.31 59.78M225.434 59.78C225.434 66.82 236.701 67.3 236.701 59.78" stroke="black" stroke-width="0.64"/>
<path d="M221.543 65.8604C222.358 65.8604 223.082 66.079 223.592 66.416C224.105 66.7549 224.371 67.1874 224.371 67.6201C224.371 68.0528 224.105 68.4854 223.592 68.8242C223.082 69.1612 222.358 69.3798 221.543 69.3799C220.728 69.3799 220.004 69.1613 219.493 68.8242C218.98 68.4854 218.715 68.0528 218.715 67.6201C218.715 67.1874 218.98 66.7549 219.493 66.416C220.004 66.0789 220.728 65.8604 221.543 65.8604Z" stroke="black" stroke-width="0.64"/>
<path d="M234.981 172.858V151.604C275.328 151.604 275.328 249.525 234.981 249.525V227.132C263.349 234.533 261.768 163.749 234.981 172.858Z" fill="#FCBE04" stroke="black" stroke-width="1.5466"/>
<rect x="1.41542" y="0.249434" width="18.9325" height="126.503" rx="9" transform="matrix(0.8284 -0.560136 0.587023 0.80957 65.4754 126.345)" fill="#FCBE04" stroke="black" stroke-width="2"/>
<path d="M235.21 171.034V149.78C275.556 149.78 275.556 247.702 235.21 247.702V225.309C263.577 232.71 261.997 161.925 235.21 171.034Z" fill="#FCBE04" stroke="black" stroke-width="1.5466"/>
<rect x="135.761" y="126.78" width="98.4489" height="144" rx="9" fill="#FCBE04" stroke="black" stroke-width="2"/>
<path d="M83.7228 104.133L51.4245 125.972C45.946 129.677 46.0778 137.482 52.7601 138.193C70.8401 140.114 93.3806 124.801 95.2515 108.606C95.931 102.724 88.7098 100.761 83.7228 104.133Z" fill="#FCBE04" stroke="black" stroke-width="2"/>
<path d="M166.598 202.616C166.598 213.071 201.833 212.781 201.833 202.616" stroke="black" stroke-width="5.15534"/>
<ellipse cx="202.697" cy="189.873" rx="2.13545" ry="3.0932" fill="black"/>
<ellipse cx="166.927" cy="189.873" rx="2.13545" ry="3.0932" fill="black"/>
</g>
<defs>
<filter id="filter0_d_141_1848" x="-14.2588" y="0" width="306.749" height="323.28" filterUnits="userSpaceOnUse" color-interpolation-filters="sRGB">
<feFlood flood-opacity="0" result="BackgroundImageFix"/>
<feColorMatrix in="SourceAlpha" type="matrix" values="0 0 0 0 0 0 0 0 0 0 0 0 0 0 0 0 0 0 127 0" result="hardAlpha"/>
<feOffset dx="-12" dy="17"/>
<feGaussianBlur stdDeviation="17.25"/>
<feComposite in2="hardAlpha" operator="out"/>
<feColorMatrix type="matrix" values="0 0 0 0 1 0 0 0 0 1 0 0 0 0 1 0 0 0 1 0"/>
<feBlend mode="normal" in2="BackgroundImageFix" result="effect1_dropShadow_141_1848"/>
<feBlend mode="normal" in="SourceGraphic" in2="effect1_dropShadow_141_1848" result="shape"/>
</filter>
</defs>
</svg>
