<svg width="400" height="45" viewBox="0 0 400 45" fill="none" xmlns="http://www.w3.org/2000/svg">
<rect width="400" height="45" rx="22.5" fill="#FFD966"/>
<path fill-rule="evenodd" clip-rule="evenodd" d="M72.0865 38C65.2855 35.158 63.8371 25.535 69.6731 21C73.2791 18.198 79.6944 18.2205 83.1304 21.6565C90.8284 29.3545 82.1535 42.206 72.0865 38ZM71.0534 33.7335C68.0754 30.7555 68.3864 25.4035 71.6884 22.8065C75.1834 20.0565 78.5994 20.1885 81.5984 23.1885C84.5984 26.1875 84.7304 29.6035 81.9804 33.0985C79.3834 36.4005 74.0314 36.7115 71.0534 33.7335ZM76.7234 29.7335C75.6894 29.7335 71.7354 25.759 71.6884 24.5C71.6704 24.002 72.9214 24.2085 73.9814 25.1685C75.2424 26.3095 76.6494 26.6795 78.0444 26.2365C79.9984 25.6165 80.0694 25.7355 78.8764 27.6465C78.1594 28.7945 77.1904 29.7335 76.7234 29.7335Z" fill="black"/>
<path fill-rule="evenodd" clip-rule="evenodd" d="M61.3034 14.9085C58.5054 16.6375 58.0534 16.6965 58.0534 15.3255C58.0534 14.4495 57.4259 13.7335 56.5534 13.7335C55.6809 13.7335 54.673 15.0285 54.673 16.5C54.673 17.9715 53.8359 19.232 52.1729 20.5C51.427 21.0689 50.4869 21.5982 49.8242 21.9713C49.1428 22.355 48.7547 22.5735 49.173 22.5C50.32 22.297 52.0724 23.6325 52.3034 27.6465V32.7335H59.3624H65.5674L65.2074 28.1995C64.8794 24.0785 65.1744 23.3555 68.4404 20.2745L72.5254 17.5L68.6764 14.8095C68.3825 14.6279 68.1143 14.4598 67.8678 14.3054C66.4927 13.4436 65.7936 13.0055 65.0912 13.0001C64.3648 12.9944 63.6348 13.4514 62.15 14.3809C61.8919 14.5425 61.611 14.7183 61.3034 14.9085Z" fill="black"/>
<path d="M330.264 10.2279C329.925 10.3474 329.42 10.885 329.314 11.2368C329.195 11.635 329.208 16.2412 329.328 16.5863C329.46 16.9514 329.733 17.2699 330.085 17.4757C330.49 17.7213 331.114 17.7345 331.532 17.5089C331.878 17.3297 332.269 16.885 332.356 16.573C332.449 16.2412 332.442 11.562 332.349 11.2301C332.263 10.9115 331.804 10.4137 331.459 10.2545C331.147 10.1084 330.636 10.0952 330.264 10.2279Z" fill="#671A1A"/>
<path d="M344.475 10.2542C344.129 10.4069 343.791 10.7454 343.638 11.0905C343.525 11.3295 343.512 11.575 343.512 13.8449V16.3339L343.671 16.6657C344.003 17.3427 344.475 17.6613 345.139 17.6547C345.796 17.6547 346.268 17.3295 346.58 16.6657L346.732 16.3339L346.699 13.8118C346.666 11.3693 346.659 11.283 346.52 11.0175C346.334 10.6724 345.889 10.2808 345.577 10.1945C345.212 10.0949 344.767 10.1149 344.475 10.2542Z" fill="#671A1A"/>
<path d="M326.313 12.8561C325.841 12.949 325.33 13.2477 324.951 13.6526C324.546 14.0973 324.347 14.4689 324.254 14.98C324.207 15.2256 324.194 18.8495 324.201 25.5995L324.221 35.8473L324.393 36.2123C324.805 37.0884 325.237 37.4866 326.073 37.7521C326.445 37.865 326.95 37.8716 338.126 37.8583L349.787 37.8384L350.232 37.626C350.816 37.3539 351.295 36.876 351.567 36.292L351.779 35.8473L351.799 25.626C351.813 18.1924 351.799 15.2986 351.746 15.0066C351.58 14.1504 351.002 13.4203 350.166 13.0287C349.721 12.8163 349.721 12.8163 348.625 12.8163H347.529L347.496 14.7079C347.45 16.8849 347.423 17.0043 346.892 17.5884C346.42 18.1061 345.909 18.3185 345.172 18.3185C344.694 18.3185 344.548 18.292 344.202 18.1327C343.718 17.9136 343.246 17.4557 343.034 16.9977C342.888 16.6791 342.881 16.5729 342.848 14.7411L342.814 12.8163H338H333.186L333.152 14.7411C333.119 16.8185 333.106 16.865 332.714 17.4424C332.482 17.7743 331.944 18.126 331.466 18.2654C330.297 18.5973 328.982 17.9136 328.637 16.7853C328.517 16.4004 328.504 16.1681 328.504 14.5685V12.7831L327.561 12.7897C327.036 12.7964 326.479 12.8229 326.313 12.8561ZM349.422 27.4114C349.422 32.3163 349.395 35.2698 349.356 35.376L349.289 35.5486H338.007C326.91 35.5486 326.718 35.5486 326.645 35.4225C326.598 35.3362 326.578 32.7278 326.578 27.4579V19.6194H338H349.422V27.4114Z" fill="#671A1A"/>
<path d="M329.261 22.7986C328.889 23.0243 328.836 23.25 328.836 24.5442C328.836 26.3495 328.803 26.323 331.24 26.323C332.741 26.323 332.947 26.3097 333.146 26.2035C333.564 25.9778 333.617 25.7787 333.617 24.4646C333.617 23.4292 333.604 23.2832 333.484 23.0907C333.245 22.6924 333.146 22.6725 331.213 22.6725C329.62 22.6725 329.447 22.6858 329.261 22.7986Z" fill="#671A1A"/>
<path d="M336.101 22.7389C336.028 22.7655 335.882 22.8849 335.789 23.0044L335.609 23.2168V24.4646C335.609 26.3827 335.523 26.3164 337.953 26.323C339.813 26.323 339.906 26.3097 340.185 25.9513C340.317 25.7854 340.324 25.6925 340.324 24.4779V23.1903L340.065 22.9314L339.806 22.6726L338.026 22.6792C337.044 22.6792 336.18 22.7057 336.101 22.7389Z" fill="#671A1A"/>
<path d="M342.801 22.8053C342.423 23.031 342.383 23.1903 342.383 24.5376C342.383 25.6726 342.389 25.7655 342.529 25.9646C342.755 26.2964 342.927 26.323 344.78 26.323C347.184 26.323 347.164 26.3363 347.164 24.511C347.164 23.25 347.111 23.0243 346.752 22.8053C346.546 22.6792 346.42 22.6726 344.773 22.6726C343.146 22.6726 343 22.6858 342.801 22.8053Z" fill="#671A1A"/>
<path d="M329.115 29.0044L328.869 29.23L328.849 30.5376L328.829 31.8385L329.088 32.1039L329.354 32.3628H331.22H333.086L333.338 32.1371L333.584 31.9115V30.5708V29.23L333.338 29.0044L333.086 28.7787H331.226H329.367L329.115 29.0044Z" fill="#671A1A"/>
<path d="M335.842 29.0109L335.609 29.2498V30.5507V31.845L335.868 32.1038L336.127 32.3627H337.96C340.437 32.3627 340.324 32.449 340.324 30.5706C340.324 29.6348 340.304 29.3295 340.225 29.1768C340.019 28.7786 340.005 28.7786 337.954 28.7786H336.081L335.842 29.0109Z" fill="#671A1A"/>
<path d="M342.662 29.0044L342.416 29.23L342.396 30.4778C342.369 31.8318 342.403 32.011 342.715 32.23C342.887 32.3562 343.014 32.3628 344.76 32.3628C346.54 32.3628 346.619 32.3562 346.792 32.2234C347.131 31.9579 347.164 31.7986 347.164 30.5708C347.164 29.3429 347.131 29.1836 346.792 28.9181C346.619 28.7854 346.54 28.7787 344.767 28.7787H342.914L342.662 29.0044Z" fill="#671A1A"/>
<rect width="29.0417" height="29.0417" transform="translate(182 9)" fill="#FFD966"/>
<path d="M191.042 9.04177L195.542 9.04175H200.042H203.542C203.542 9.04175 205.787 9.3735 207.042 10.0417C208.145 10.6295 209.542 12.0417 209.542 12.0417L210.542 14.5417L211.042 17.0417V18.0417V19.0417V20.5417V24.5417V28.0417L210.542 31.0417L209.542 34.5417L208.542 35.5417L206.042 37.5417L204.042 38.0417H201.042H193.042H190.542H189.042C189.042 38.0417 187.779 37.8646 187.042 37.5417C185.896 37.0404 184.542 35.5417 184.542 35.5417L184.042 35.0417L183.542 34.5417C183.274 34.1971 183.042 33.5417 183.042 33.5417L182.542 32.5417C182.542 32.5417 182.103 31.974 182.042 31.5417V31.0417V20.0417V17.0417C182.042 17.0417 181.948 16.136 182.042 15.5417C182.136 14.9475 182.542 14.0417 182.542 14.0417L183.042 13.0417C183.042 13.0417 183.323 12.3231 183.542 12.0417C183.761 11.7604 184.042 11.5417 184.042 11.5417L184.542 11.0417L185.278 10.5511C185.786 10.2122 186.324 9.92068 186.886 9.68007L187.792 9.29177C187.792 9.29177 188.547 9.10167 189.042 9.04177C189.817 8.94779 191.042 9.04177 191.042 9.04177Z" stroke="black" stroke-width="3"/>
<path d="M196.542 28.5417H201.042H205.542" stroke="black" stroke-width="3" stroke-linecap="round"/>
<path d="M197 19H201.5H206" stroke="black" stroke-width="3" stroke-linecap="round"/>
<path d="M188 18.5L188.726 19.4673C189.118 19.9903 189.898 20.0025 190.306 19.492L191.5 18L193 16" stroke="black" stroke-width="2" stroke-linecap="round"/>
<path d="M188 28.5L188.726 29.4673C189.118 29.9903 189.898 30.0025 190.306 29.492L191.5 28L193 26" stroke="black" stroke-width="2" stroke-linecap="round"/>
<line x1="123.5" y1="1.10895e-09" x2="123.5" y2="45" stroke="black"/>
<line x1="272.5" y1="1.10895e-09" x2="272.5" y2="45" stroke="black"/>
</svg>
