<svg width="307" height="307" viewBox="0 0 307 307" fill="none" xmlns="http://www.w3.org/2000/svg">
<path d="M233.315 102.773L218.887 88.3447C245.334 61.8971 311.806 128.368 285.358 154.816L270.157 139.615C293.776 126.044 244.69 79.0302 233.315 102.773Z" fill="#FCBE04" stroke="black" stroke-width="1.48474"/>
<path d="M55.7543 166.718C48.4557 159.419 67.6408 150.035 79.423 161.818C66.7024 157.855 65.1384 176.102 55.7543 166.718Z" fill="#0FBCEB" stroke="black" stroke-width="0.589824"/>
<rect x="91.1063" y="181.027" width="17.7043" height="120" rx="8.64" transform="rotate(-80 91.1063 181.027)" fill="#FCBE04" stroke="black" stroke-width="1.92"/>
<path d="M232.227 101.385L217.799 86.957C244.246 60.5094 310.718 126.981 284.27 153.428L269.069 138.228C292.689 124.656 243.602 77.6425 232.227 101.385Z" fill="#FCBE04" stroke="black" stroke-width="1.48474"/>
<rect x="137.019" y="136.511" width="91.2" height="138.24" rx="8.64" transform="rotate(-45 137.019 136.511)" fill="#FCBE04" stroke="black" stroke-width="1.92"/>
<path d="M87.4691 155.508L81.2078 191.018C80.1075 197.258 85.5339 202.587 90.4537 198.594C103.479 188.021 107.816 163.08 98.1883 150.858C94.6156 146.323 88.4716 149.822 87.4691 155.508Z" fill="#FCBE04" stroke="black" stroke-width="1.92"/>
<path d="M208.715 168.37C215.812 175.467 238.712 152.173 231.812 145.273" stroke="black" stroke-width="4.94912"/>
<path d="M195.561 167.866C185.674 157.98 197.219 145.848 207.399 156.028" stroke="black" stroke-width="4.74624"/>
<path d="M218.641 144.787C208.754 134.9 220.299 122.768 230.479 132.948" stroke="black" stroke-width="4.74624"/>
<path d="M43.2661 179.72C36.139 190.533 36.1393 201.101 43.2661 201.101C50.3929 201.101 49.1643 188.322 43.2661 179.72Z" fill="#0FBCEB"/>
<path d="M43.2661 179.72C36.139 190.533 36.1393 201.101 43.2661 201.101C50.3929 201.101 49.1643 188.322 43.2661 179.72Z" fill="#0FBCEB"/>
<path d="M43.2661 179.72C36.139 190.533 36.1393 201.101 43.2661 201.101C50.3929 201.101 49.1643 188.322 43.2661 179.72Z" stroke="black" stroke-width="0.98304"/>
<path d="M28.3452 200.099C21.2181 210.912 21.2184 221.48 28.3452 221.48C35.472 221.48 34.2434 208.7 28.3452 200.099Z" fill="#0FBCEB"/>
<path d="M28.3452 200.099C21.2181 210.912 21.2184 221.48 28.3452 221.48C35.472 221.48 34.2434 208.7 28.3452 200.099Z" fill="#0FBCEB"/>
<path d="M28.3452 200.099C21.2181 210.912 21.2184 221.48 28.3452 221.48C35.472 221.48 34.2434 208.7 28.3452 200.099Z" stroke="black" stroke-width="0.98304"/>
<path d="M54.6063 188.123C45.6673 182.962 61.77 168.932 76.2002 177.263C62.8876 176.729 66.0994 194.758 54.6063 188.123Z" fill="#0FBCEB" stroke="black" stroke-width="0.589824"/>
<path d="M54.6063 205.403C45.6673 200.242 61.77 186.212 76.2002 194.543C62.8876 194.009 66.0994 212.038 54.6063 205.403Z" fill="#0FBCEB" stroke="black" stroke-width="0.589824"/>
<path d="M39.4263 236.36C32.2991 247.173 32.2995 257.741 39.4262 257.741C46.5531 257.741 45.3245 244.961 39.4263 236.36Z" fill="#0FBCEB"/>
<path d="M39.4263 236.36C32.2991 247.173 32.2995 257.741 39.4262 257.741C46.5531 257.741 45.3245 244.961 39.4263 236.36Z" fill="#0FBCEB"/>
<path d="M39.4263 236.36C32.2991 247.173 32.2995 257.741 39.4262 257.741C46.5531 257.741 45.3245 244.961 39.4263 236.36Z" stroke="black" stroke-width="0.98304"/>
<path d="M53.8257 215.24C46.6986 226.053 46.6989 236.621 53.8257 236.621C60.9525 236.621 59.7239 223.842 53.8257 215.24Z" fill="#0FBCEB"/>
<path d="M53.8257 215.24C46.6986 226.053 46.6989 236.621 53.8257 236.621C60.9525 236.621 59.7239 223.842 53.8257 215.24Z" fill="#0FBCEB"/>
<path d="M53.8257 215.24C46.6986 226.053 46.6989 236.621 53.8257 236.621C60.9525 236.621 59.7239 223.842 53.8257 215.24Z" stroke="black" stroke-width="0.98304"/>
</svg>
