<svg width="238" height="255" viewBox="0 0 238 255" fill="none" xmlns="http://www.w3.org/2000/svg">
<path d="M138 79.88C138 32.28 173.997 32.28 198.217 32.28H237.2V58.28H198.217C179.14 58.28 162.385 58.28 162.385 79.88H138Z" fill="#6D6D6D" stroke="black" stroke-width="0.8"/>
<path d="M136.6 75.48H168.2C170.741 75.48 172.8 77.5395 172.8 80.08C172.8 82.6205 170.741 84.68 168.2 84.68H136.6C134.059 84.68 132 82.6205 132 80.08C132 77.5395 134.059 75.48 136.6 75.48Z" fill="#6D6D6D" stroke="black" stroke-width="0.8"/>
<rect x="185.36" y="11.2002" width="12.04" height="20.72" fill="#6D6D6D" stroke="black" stroke-width="0.56"/>
<path d="M191.38 7.7609C172.084 -1.22116 156.8 -3.15908 156.8 7.76091C156.8 18.6809 172.62 17.9809 191.38 7.7609Z" fill="#6D6D6D" stroke="black" stroke-width="0.56"/>
<path d="M191.24 7.7609C210.536 -1.22116 225.82 -3.15908 225.82 7.76091C225.82 18.6809 210 17.9809 191.24 7.7609Z" fill="#6D6D6D" stroke="black" stroke-width="0.56"/>
<path d="M191.38 1.40039C194.154 1.40039 196.654 2.15586 198.451 3.3623C200.25 4.56992 201.32 6.20815 201.32 7.98047C201.32 9.75276 200.25 11.3911 198.451 12.5986C196.654 13.8051 194.154 14.5605 191.38 14.5605C188.606 14.5605 186.107 13.805 184.31 12.5986C182.511 11.3911 181.441 9.75282 181.44 7.98047C181.44 6.20806 182.511 4.56994 184.31 3.3623C186.107 2.1559 188.606 1.40044 191.38 1.40039Z" fill="#6D6D6D" stroke="black" stroke-width="0.56"/>
<path d="M176.8 42.28C176.8 49.32 187.68 49.8 187.68 42.28M194.56 42.28C194.56 49.32 205.44 49.8 205.44 42.28" stroke="black" stroke-width="0.64"/>
<path d="M190.802 48.3604C191.585 48.3604 192.28 48.5777 192.771 48.9131C193.262 49.2496 193.521 49.6822 193.521 50.1201C193.521 50.558 193.262 50.9906 192.771 51.3271C192.28 51.6625 191.585 51.8799 190.802 51.8799C190.019 51.8799 189.323 51.6625 188.833 51.3271C188.341 50.9906 188.082 50.558 188.082 50.1201C188.082 49.6822 188.341 49.2496 188.833 48.9131C189.323 48.5777 190.018 48.3604 190.802 48.3604Z" stroke="black" stroke-width="0.64"/>
<path d="M138 79.88C138 32.28 173.997 32.28 198.217 32.28H237.2V58.28H198.217C179.14 58.28 162.385 58.28 162.385 79.88H138Z" fill="#6D6D6D" stroke="black" stroke-width="0.8"/>
<path d="M136.6 75.48H168.2C170.741 75.48 172.8 77.5395 172.8 80.08C172.8 82.6205 170.741 84.68 168.2 84.68H136.6C134.059 84.68 132 82.6205 132 80.08C132 77.5395 134.059 75.48 136.6 75.48Z" fill="#6D6D6D" stroke="black" stroke-width="0.8"/>
<rect x="185.36" y="11.2002" width="12.04" height="20.72" fill="#6D6D6D" stroke="black" stroke-width="0.56"/>
<path d="M191.38 7.7609C172.084 -1.22116 156.8 -3.15908 156.8 7.76091C156.8 18.6809 172.62 17.9809 191.38 7.7609Z" fill="#6D6D6D" stroke="black" stroke-width="0.56"/>
<path d="M191.24 7.7609C210.536 -1.22116 225.82 -3.15908 225.82 7.76091C225.82 18.6809 210 17.9809 191.24 7.7609Z" fill="#6D6D6D" stroke="black" stroke-width="0.56"/>
<path d="M191.38 1.40039C194.154 1.40039 196.654 2.15586 198.451 3.3623C200.25 4.56992 201.32 6.20815 201.32 7.98047C201.32 9.75276 200.25 11.3911 198.451 12.5986C196.654 13.8051 194.154 14.5605 191.38 14.5605C188.606 14.5605 186.107 13.805 184.31 12.5986C182.511 11.3911 181.441 9.75282 181.44 7.98047C181.44 6.20806 182.511 4.56994 184.31 3.3623C186.107 2.1559 188.606 1.40044 191.38 1.40039Z" fill="#6D6D6D" stroke="black" stroke-width="0.56"/>
<path d="M176.8 42.28C176.8 49.32 187.68 49.8 187.68 42.28M194.56 42.28C194.56 49.32 205.44 49.8 205.44 42.28" stroke="black" stroke-width="0.64"/>
<path d="M190.802 48.3604C191.585 48.3604 192.28 48.5777 192.771 48.9131C193.262 49.2496 193.521 49.6822 193.521 50.1201C193.521 50.558 193.262 50.9906 192.771 51.3271C192.28 51.6625 191.585 51.8799 190.802 51.8799C190.019 51.8799 189.323 51.6625 188.833 51.3271C188.341 50.9906 188.082 50.558 188.082 50.1201C188.082 49.6822 188.341 49.2496 188.833 48.9131C189.323 48.5777 190.018 48.3604 190.802 48.3604Z" stroke="black" stroke-width="0.64"/>
<path d="M203.779 155.358V134.104C242.74 134.104 242.74 232.025 203.779 232.025V209.632C231.173 217.033 229.646 146.249 203.779 155.358Z" fill="#FCBE04" stroke="black" stroke-width="1.5466"/>
<rect x="41.3927" y="108.251" width="18.442" height="125" rx="9" transform="rotate(-35 41.3927 108.251)" fill="#FCBE04" stroke="black" stroke-width="2"/>
<path d="M204 153.534V132.28C242.961 132.28 242.961 230.202 204 230.202V207.809C231.393 215.21 229.867 144.425 204 153.534Z" fill="#FCBE04" stroke="black" stroke-width="1.5466"/>
<rect x="108" y="109.28" width="95" height="144" rx="9" fill="#FCBE04" stroke="black" stroke-width="2"/>
<path d="M57.5104 86.7759L26.7432 108.319C21.3363 112.105 21.4081 120.027 27.9734 120.71C45.3549 122.516 66.9202 107.34 68.8309 91.2463C69.5399 85.2742 62.4368 83.3264 57.5104 86.7759Z" fill="#FCBE04" stroke="black" stroke-width="2"/>
<path d="M137.743 185.116C137.743 195.571 171.768 195.281 171.768 185.116" stroke="black" stroke-width="5.15534"/>
<ellipse cx="172.603" cy="172.373" rx="2.06213" ry="3.0932" fill="black"/>
<ellipse cx="138.062" cy="172.373" rx="2.06213" ry="3.0932" fill="black"/>
</svg>
